<svg xmlns="http://www.w3.org/2000/svg" viewBox="0 0 1364.99 201.64"><path fill="#344f91" d="M.001 119.823l29.064-40.685 114.53 81.814-29.064 40.685z"/><path fill="#344f92" d="M79.212 165.918L228.666 16.464 264.02 51.82 114.567 201.274z"/><path fill="#344f92" d="M280.49 0l-71.27 9.75 61.52 61.51L280.49 0z"/><path d="M325.52 146.19V58.84h55.06v16.61h-35.36v20.23h30.27v16.61h-30.27v33.9z" fill="#344f92"/><path d="M403.89 70a11.78 11.78 0 01-8.17-2.88 9.54 9.54 0 01-3.21-7.44 9.35 9.35 0 013.21-7.37 13.38 13.38 0 0116.41 0 9.43 9.43 0 013.15 7.37 9.62 9.62 0 01-3.15 7.44 11.72 11.72 0 01-8.24 2.88zm-9.78 76.23V79.74h19.7v66.45z" fill="#344f92"/><path d="M431.09 146.19V79.74h16.07l1.34 11.65h.5a25.74 25.74 0 018.71-10 18.93 18.93 0 0110.18-3.21 26.6 26.6 0 014.62.33 14.16 14.16 0 013.28 1l-3.21 17a33.86 33.86 0 00-3.48-.8 23.09 23.09 0 00-3.76-.27 14.31 14.31 0 00-7.83 2.68q-4.1 2.68-6.77 9.51v38.59z" fill="#344f92"/><path d="M502.9 147.79a38.93 38.93 0 01-13.47-2.54 41.51 41.51 0 01-12-6.7l8.84-12.33a39.83 39.83 0 008.71 5.23 21.66 21.66 0 008.44 1.74q4.43 0 6.43-1.47a4.87 4.87 0 002-4.16 4.21 4.21 0 00-1.14-2.88 11.62 11.62 0 00-3.08-2.34 30.87 30.87 0 00-4.35-1.94q-2.42-.87-5-2a61.21 61.21 0 01-6.16-2.81 26.05 26.05 0 01-5.63-4 19.26 19.26 0 01-4.15-5.5 15.83 15.83 0 01-1.61-7.3 19.74 19.74 0 011.81-8.44 18 18 0 015.16-6.56 25.36 25.36 0 018-4.22 33.2 33.2 0 0110.45-1.54 32.15 32.15 0 0113.39 2.61 53.23 53.23 0 0110.05 5.83l-8.84 11.79a34.53 34.53 0 00-7.1-4.15 17.69 17.69 0 00-7-1.48q-7.5 0-7.5 5.23a3.83 3.83 0 001.07 2.74 10.38 10.38 0 002.88 2.08 38.63 38.63 0 004.15 1.81l4.89 1.81c2.15.8 4.27 1.72 6.37 2.74a26.33 26.33 0 015.89 3.96 17.47 17.47 0 014.22 5.56 17.69 17.69 0 011.61 7.84 20.4 20.4 0 01-1.75 8.44 18.56 18.56 0 01-5.22 6.76 26 26 0 01-8.57 4.56 38 38 0 01-11.79 1.63z" fill="#344f92"/><path d="M565.59 147.79a26.48 26.48 0 01-10.51-1.87 18.29 18.29 0 01-7.1-5.23 21.11 21.11 0 01-4-8.1 40.59 40.59 0 01-1.28-10.52V95.14h-9.11v-14.6l10.19-.8L546 62.05h16.35v17.69h15.94v15.4h-15.91v26.66c0 3.75.78 6.46 2.34 8.11a8.18 8.18 0 006.23 2.48 14.5 14.5 0 003.29-.4 21.87 21.87 0 003-.94l3.08 14.33c-1.79.54-3.88 1.07-6.3 1.61a39 39 0 01-8.43.8z" fill="#344f92"/><path d="M636.73 146.19V75.45h-24V58.84h67.79v16.61h-24v70.74z" fill="#344f92"/><path d="M702.38 70a11.77 11.77 0 01-8.17-2.88 9.51 9.51 0 01-3.21-7.48 9.32 9.32 0 013.22-7.37 13.38 13.38 0 0116.41 0 9.46 9.46 0 013.15 7.37 9.65 9.65 0 01-3.15 7.44 11.74 11.74 0 01-8.25 2.92zm-9.78 76.23V79.74h19.69v66.45z" fill="#344f92"/><path d="M729.57 146.19V79.74h16.08l1.35 8.57h.54a52.6 52.6 0 018.84-7.17 20.32 20.32 0 0111.25-3q7.1 0 11.46 2.88a19.8 19.8 0 016.9 8.24 57.38 57.38 0 019.31-7.84 20.27 20.27 0 0111.58-3.28q10.73 0 15.75 7.17t5 19.62v41.27H808v-38.73q0-7.23-2-9.92c-1.29-1.78-3.37-2.68-6.23-2.68q-4.95 0-11.38 6.44v44.88h-19.7v-38.72q0-7.23-1.94-9.92c-1.3-1.78-3.37-2.68-6.23-2.68-3.39 0-7.15 2.15-11.25 6.44v44.88z" fill="#344f92"/><path d="M874.13 147.79a37.07 37.07 0 01-13.27-2.34 30.44 30.44 0 01-10.71-6.83A31.22 31.22 0 01843 127.7a40 40 0 01-2.5-14.7 37.78 37.78 0 012.68-14.54 34.47 34.47 0 017-11 30.62 30.62 0 0110-6.9 29.27 29.27 0 0111.66-2.41 29.61 29.61 0 0112.39 2.41 24.48 24.48 0 018.84 6.7 28.54 28.54 0 015.3 10.11 44.13 44.13 0 011.75 12.63 45.63 45.63 0 01-.27 5.09 36.38 36.38 0 01-.54 3.62h-39.79c.89 4.82 2.88 8.38 6 10.65a18.54 18.54 0 0011.33 3.42 27.4 27.4 0 0014.33-4.42l6.57 11.92a43.76 43.76 0 01-11.33 5.49 39.75 39.75 0 01-12.29 2.02zm-14.74-42.06h24a15.05 15.05 0 00-2.55-9.11q-2.54-3.5-8.57-3.49a12.21 12.21 0 00-8.27 3.08q-3.54 3.09-4.61 9.52z" fill="#344f92"/><path d="M1006.49 170.57a43.49 43.49 0 01-12.86-1.81 41.22 41.22 0 01-10.66-5 38.38 38.38 0 01-8.37-7.5 40.87 40.87 0 01-5.89-9.44 37.26 37.26 0 01-12.66-5.16 34.77 34.77 0 01-9.71-9.45 44.05 44.05 0 01-6.17-13.33 61.55 61.55 0 01-2.17-16.77A58.56 58.56 0 01940.91 83 39.59 39.59 0 01949 69a34.93 34.93 0 0112.53-8.71 44.8 44.8 0 0132.29 0 34.46 34.46 0 0112.53 8.71 40.09 40.09 0 018.11 14.13 58.13 58.13 0 012.88 19q0 17.69-7.5 29.07a35.17 35.17 0 01-20.23 15 16.69 16.69 0 008.3 6.63 31 31 0 0010.86 1.94 32.94 32.94 0 005.29-.4 25.63 25.63 0 004.35-1.07l3.49 14.33a28.28 28.28 0 01-6.37 2.08 42.27 42.27 0 01-9.04.86zm-28.81-38.85q9 0 14.2-7.77t5.23-21.84q0-13.12-5.23-20.5a17.36 17.36 0 00-28.4 0q-5.22 7.36-5.22 20.5 0 14.07 5.22 21.84t14.2 7.77z" fill="#344f92"/><path d="M1052.17 147.79q-10.85 0-15.74-7.1t-4.89-19.69V79.74h19.69v38.71c0 4.83.67 8.13 2 9.92s3.44 2.68 6.3 2.68a10.92 10.92 0 006.3-1.74 25.42 25.42 0 005.49-5.63V79.74H1091v66.45h-16l-1.48-9.25h-.4a35.9 35.9 0 01-9.18 8 22.68 22.68 0 01-11.77 2.85z" fill="#344f92"/><path d="M1125.05 147.79a21.12 21.12 0 01-8.24-1.54 17.55 17.55 0 01-6.23-4.28 19.86 19.86 0 01-3.95-6.37 21.55 21.55 0 01-1.41-7.9 18.61 18.61 0 018.85-16.35q8.84-5.89 28.53-7.9a11.21 11.21 0 00-2.61-7q-2.35-2.62-7.84-2.62a23.81 23.81 0 00-8.51 1.61 62.59 62.59 0 00-9 4.42l-7.1-13a69.84 69.84 0 0113.46-6.3 45.69 45.69 0 0114.94-2.41q12.87 0 19.63 7.3t6.76 22.71v38.05h-16.07l-1.34-6.84h-.54a42.25 42.25 0 01-9 6.1 22.81 22.81 0 01-10.33 2.32zm6.7-15.27a10.87 10.87 0 005.76-1.47 28 28 0 005.09-4.16v-11.65q-10.45 1.47-14.47 4.29t-4 6.69a5.52 5.52 0 002.08 4.76 9.1 9.1 0 005.54 1.54z" fill="#344f92"/><path d="M1197 147.79a20.42 20.42 0 01-8.57-1.6 13.84 13.84 0 01-5.56-4.49 18.85 18.85 0 01-3-7 40.81 40.81 0 01-.94-9.18V52.27h19.69v74.09q0 3.08 1.14 4.29a3.27 3.27 0 002.34 1.2h1.14a4.36 4.36 0 001.28-.27l2.41 14.61a21.32 21.32 0 01-4.09 1.13 31.11 31.11 0 01-5.84.47z" fill="#344f92"/><path d="M1227 70a11.78 11.78 0 01-8.17-2.88 9.54 9.54 0 01-3.22-7.44 9.36 9.36 0 013.22-7.37 13.38 13.38 0 0116.41 0 9.43 9.43 0 013.15 7.37 9.62 9.62 0 01-3.15 7.44A11.74 11.74 0 011227 70zm-9.78 76.23V79.74h19.69v66.45z" fill="#344f92"/><path d="M1279.79 147.79a26.53 26.53 0 01-10.52-1.87 18.29 18.29 0 01-7.1-5.23 21.26 21.26 0 01-4-8.1 40.59 40.59 0 01-1.28-10.52V95.14h-9.11v-14.6l10.19-.8 2.27-17.69h16.35v17.69h15.94v15.4h-15.94v26.66c0 3.75.78 6.46 2.34 8.11a8.18 8.18 0 006.23 2.48 14.5 14.5 0 003.29-.4 21.87 21.87 0 003-.94l3.08 14.33c-1.79.54-3.88 1.07-6.3 1.61a38.93 38.93 0 01-8.44.8z" fill="#344f92"/><path d="M1312.87 172.18a34.89 34.89 0 01-5.22-.34 25.89 25.89 0 01-4.15-1l3.48-15c.62.18 1.34.36 2.14.54a10.54 10.54 0 002.28.27q4.95 0 7.64-2.42a14.79 14.79 0 004-6.29l.93-3.49-25.59-64.7h19.83l9.52 28.53q1.47 4.56 2.67 9.25t2.55 9.64h.54q1.07-4.68 2.21-9.44c.75-3.17 1.54-6.32 2.34-9.45l8-28.53H1365l-23 67.12a90.67 90.67 0 01-5 11 30.68 30.68 0 01-6 7.9 23.05 23.05 0 01-7.77 4.76 29.61 29.61 0 01-10.36 1.65z" fill="#344f92"/></svg>