<svg xmlns="http://www.w3.org/2000/svg" viewBox="0 0 400 200.5"><title>civilian</title><path fill="#1ca8b6" d="M0 .5h400v200H0z"/><path fill="#f04a3e" d="M200 .5h200v200H200z"/><path fill="#ce2030" d="M0 198.8h400v1.75H0z"/><path d="M132.5 175.3c-3.1 4.9-6.1 9.8-12.8 14.4a41.3 41.3 0 0 1-23.8 7.5c-22.6 0-40.7-16.3-40.7-45 0-25.2 17.1-45 41.1-45a39.2 39.2 0 0 1 24.8 8.5c5.9 4.7 8.7 9.4 11 13.6l-16.9 8.5a21.2 21.2 0 0 0-6.3-8.8 17.8 17.8 0 0 0-11.6-4.1c-13.8 0-20.8 12.8-20.8 26.9 0 18.7 9.4 27.9 20.8 27.9s15.5-7.7 18.5-12.6zm74.5-39.9v-25.7h-2.6l-17.3 60.4-17.7-60.4h-22.6l29.1 84.9h21.8l20.5-59.2z" fill="#fff"/><path d="M197.5 109.7h21.2v67.1H252v17.9h-54.5zm76.1 0h20.8l18.6 31.2c6.7 12 8.8 15.7 12.8 23.2l-1.2-54.5h20.3v84.9H324l-15.9-26.7c-7.7-12.6-9-15.3-14.9-26.5l.6 53.5h-20.4v-85.1z" fill="#010101"/><path fill="#fff" d="M0 0h400v35.78H0z"/><path fill="#f04a3e" d="M194.9 13.5H235v8h-40.1z"/><path fill="#1ca8b6" d="M240 13.5h40.1v8H240z"/><path fill="#ce2031" d="M284.9 13.5H325v8h-40.1z"/><path fill="#44b978" d="M330 13.5h40.1v8H330z"/><path d="M30 11.5h99.9v12H30z"/></svg>