<svg width="5603" height="3142" viewBox="0 0 5603 3142" xmlns="http://www.w3.org/2000/svg"><title>devices@2x</title><g fill="none" fill-rule="nonzero"><path d="M2728.06 2971.23c-64.724 0-106.089-4.822-109.671-14.673v-12.838h1144.48v12.838c-3.582 9.851-44.947 14.673-109.671 14.673H2728.06z" fill="#D5D2CF"/><path d="M2726.46 2960.23c-52.659 0-107.157-3.02-108.07-16.507 9.614-20.219 132.241-86.051 148.204-115.815 23.679-32.137 41.566-231.874 52.054-377.557h743.96c10.488 145.683 28.375 345.42 52.054 377.557 15.963 29.764 138.59 95.596 148.204 115.815-.913 13.487-55.411 16.507-108.07 16.507H2726.46z" fill="#C3C3C3"/><path d="M4897.25 2063.36H1484v286.119c0 55.675 45.201 100.875 100.875 100.875h3211.5c55.674 0 100.875-45.2 100.875-100.875V2063.36z" fill="#D5D2CF"/><path d="M4897.25 100.875C4897.25 45.201 4852.049 0 4796.375 0h-3211.41c-55.723 0-100.963 45.24-100.963 100.963v1962.39h3413.25V100.873l-.002.002z" fill="#343434"/><path d="M4730.38 167.542a3.669 3.669 0 0 0-3.667-3.667h-3072.17a3.669 3.669 0 0 0-3.667 3.667v1728.17a3.669 3.669 0 0 0 3.667 3.667h3072.17a3.669 3.669 0 0 0 3.667-3.667V167.542z" fill="#343434"/><path fill="#2BC4E7" d="M1654.625 167.678h3072v1728h-3072z"/><g><path d="M5217.304 1066.33c-14.303-13.391-35.244-19.9-64.017-19.9H3970.614c-14.001 0-26.434 1.983-36.955 5.895-10.283 3.823-18.778 9.508-25.25 16.898-12.213 13.947-18.407 34.214-18.407 60.238v1750.154c0 25.925 6.218 46.169 18.477 60.169 13.286 15.17 33.962 22.862 61.456 22.862h1183.356c29.417 0 50.509-6.358 64.48-19.438 6.936-6.495 12.245-14.922 15.778-25.047 3.769-10.801 5.68-23.923 5.68-38.998V1129.916c0-15.076-1.911-28.196-5.68-38.997-3.272-9.374-8.584-17.416-16.242-24.586l-.003-.002z" fill="#343434"/><path d="M5160.132 1206.174h-1191.04a6.204 6.204 0 0 0-6.202 6.204v1588.194a6.204 6.204 0 0 0 6.203 6.204h1191.04a6.205 6.205 0 0 0 6.203-6.204V1212.378a6.205 6.205 0 0 0-6.204-6.204z" fill="#343434"/><path fill="#EDE039" d="M3969.096 1212.378h1191.04v1588.194h-1191.04z"/></g><g><g transform="translate(236 1521)" fill="#343434"><rect x=".749" width="2289.785" height="1580.856" rx="67"/><rect x="4.734" y="4" width="2280.808" height="1572.017" rx="62"/><rect x="9.715" y="9" width="2271.832" height="1563.179" rx="59"/></g><path d="M302 1617h2160v1350H302z" fill="#F83624"/><g><path d="M0 3102h2763.75c-18.839 20.57-86.046 39.628-134.227 39.628h-2495.3C86.046 3141.628 18.839 3122.57 0 3102z" fill="#C3C3C3"/><path fill="#D5D2CF" d="M0 3101.578V3062h2763.61v39.578z"/><path d="M1206.46 3094.25c-13.177 0-26.846-16.55-26.846-31.959h406.516c0 15.409-13.669 31.959-26.846 31.959H1206.46z" fill="#C3C3C3"/></g></g><g><path d="M5529.247 1726.75c-12.963-5.11-27.878-7.702-44.33-7.702h-470.825c-16.454 0-31.37 2.592-44.333 7.703-12.299 4.849-22.882 11.987-31.454 21.216-17.2 18.519-26.292 45.49-26.292 78.001v1199.363c0 32.516 9.091 59.487 26.292 78.002 8.572 9.237 19.155 16.368 31.454 21.222 12.964 5.106 27.879 7.7 44.333 7.7h470.824c16.453 0 31.368-2.594 44.33-7.7 12.305-4.854 22.886-11.985 31.457-21.222 17.2-18.515 26.293-45.486 26.293-78.002V1825.968c0-32.51-9.092-59.482-26.293-78-8.571-9.23-19.152-16.368-31.456-21.217z" fill="#343434"/><path d="M4944.534 1880.054l-1.245.247-1.055.705-.706 1.055-.247 1.245v1084.69l.247 1.244.706 1.056 1.055.705 1.245.248h609.94l1.245-.248 1.055-.705.706-1.056.247-1.244v-1084.69l-.247-1.245c-.701-1.048-.713-1.06-1.761-1.76l-1.245-.247h-609.94z" fill="#343434"/><path fill="#389E3D" d="M4944.534 1883.305h609.94v1084.69h-609.94z"/></g></g></svg>