<svg xmlns="http://www.w3.org/2000/svg" viewBox="0 0 400 400"><title>generalist_screen</title><path fill="#fff" d="M0 0h400v400H0z"/><path fill="#333" d="M0 0h400v82H0z"/><path fill="#fff" d="M143.3 64h113.5v9.5H143.3z"/><path d="M79.6 31.9h14.8v1.2a25.6 25.6 0 0 1-.9 7.1 15.5 15.5 0 0 1-3.1 5.4 16.1 16.1 0 0 1-12.7 5.6 17.4 17.4 0 0 1-12.9-5.4 17.8 17.8 0 0 1-5.4-13.1 17.8 17.8 0 0 1 5.5-13.2A17.8 17.8 0 0 1 78.2 14a18.7 18.7 0 0 1 7.8 1.8 22.3 22.3 0 0 1 6.9 5.5l-4 3.7c-3-3.9-6.5-5.9-10.8-5.9a12.9 12.9 0 0 0-9.5 3.9 13.1 13.1 0 0 0-3.8 9.6 13.4 13.4 0 0 0 13 13.4 11 11 0 0 0 7.2-2.6 9.6 9.6 0 0 0 3.6-6.5h-9zM121 19.8h-14.4v8.6h13.9v5.1h-13.9v12H121v5.1h-19.8V14.7H121zm7.1 30.8V12.3l26.2 27.4v-25h5.4v38.1l-26.2-27.3v25.1zM188 19.8h-14.4v8.6h13.9v5.1h-13.9v12H188v5.1h-19.8V14.7H188zm19.2 15.5l11.1 15.3h-6.6l-10.2-14.7h-1v14.7h-5.4V14.7h6.3c4.8 0 8.2.9 10.2 2.6a9.9 9.9 0 0 1 3.5 7.9 10.3 10.3 0 0 1-2.2 6.5 9.4 9.4 0 0 1-5.7 3.6zm-6.7-4.1h1.7c5.2 0 7.7-2 7.7-5.9s-2.5-5.5-7.5-5.5h-1.9v11.5zm44.3 10.6h-15.3l-4 8.7h-5.8l17.6-38.1 17.2 38.1h-5.9zm-2.2-5.1l-5.4-12.2-5.5 12.2zm21.7-22.1v30.9H275v5.1h-16V14.7zm21.1 0v36H280V14.7zm28.9 5.4l-4.4 2.6a6.4 6.4 0 0 0-2.4-2.8 5.2 5.2 0 0 0-3-.7 5.5 5.5 0 0 0-3.8 1.3 4 4 0 0 0-1.5 3.2c0 1.7 1.3 3.2 3.9 4.2l3.6 1.5a16.2 16.2 0 0 1 6.4 4.3 9.4 9.4 0 0 1 2 6.2 11.1 11.1 0 0 1-3.3 8.2 11.3 11.3 0 0 1-8.3 3.2 11.1 11.1 0 0 1-7.7-2.8 13 13 0 0 1-3.8-7.8l5.5-1.2c.3 2.1.7 3.6 1.3 4.4a6.2 6.2 0 0 0 9.1.6 6.6 6.6 0 0 0 1.4-6.2 4.8 4.8 0 0 0-.9-1.6 8.5 8.5 0 0 0-1.6-1.4 15.1 15.1 0 0 0-2.3-1.2l-3.4-1.5q-7.3-3.1-7.3-9.1a8.6 8.6 0 0 1 3.1-6.7 11 11 0 0 1 7.7-2.7c4 .1 7.3 2 9.6 6.1zm18-.3v30.9H327V19.8h-8.3v-5.1h21.9v5.1z" fill="none" stroke="#fff" stroke-miterlimit="10" stroke-width="2"/><path fill="#e8e8e8" d="M59.3 94h281.3v6H59.3zM59.3 105.5h281.3v6H59.3zM59.3 117h281.3v6H59.3zM59.3 182h281.3v6H59.3zM59.3 193.5h281.3v6H59.3zM59.3 205H159v6H59.3zM79.3 222H323v6H79.3zM79.3 233.5H323v6H79.3zM79.3 245H323v6H79.3zM79.3 256.5H323v6H79.3zM79.3 268H204v6H79.3zM59.3 320.8h281.3v6H59.3zM59.3 332.3H159v6H59.3z"/><path fill="#606060" d="M59.3 137.4h281.3v1.75H59.3zM59.3 172.3h149.5v4.75H59.3zM59.3 311.6h218.9v4.75H59.3zM59.3 385h199.4v4.75H59.3z"/><path fill="#d53a38" d="M59.3 155h137.2v11H59.3zM59.3 294.5h118.2v11H59.3zM59.3 352.3h281.3v11H59.3zM59.3 368.6h74.8v11H59.3z"/></svg>