<svg id="Layer_1" xmlns="http://www.w3.org/2000/svg" viewBox="0 0 400 373"><style>.st0{fill:#fff}.st1{fill:#333}.st2{fill:#e8e8e8}.st3{fill:#606060}.st4{fill:#d53a38}</style><title>generalist_screen</title><path class="st0" d="M0 0h400v373H0z"/><path class="st1" d="M0 0h400v55H0z"/><path class="st2" d="M59.3 67h281.3v6H59.3zM59.3 78.5h281.3v6H59.3zM59.3 90h281.3v6H59.3zM59.3 155h281.3v6H59.3zM59.3 166.5h281.3v6H59.3zM59.3 178H159v6H59.3zM79.3 195H323v6H79.3zM79.3 206.5H323v6H79.3zM79.3 218H323v6H79.3zM79.3 229.5H323v6H79.3zM79.3 241H204v6H79.3zM59.3 293.8h281.3v6H59.3zM59.3 305.3H159v6H59.3z"/><path class="st3" d="M59.3 110.4h281.3v1.8H59.3zM59.3 145.3h149.5v4.8H59.3zM59.3 284.6h218.9v4.8H59.3zM59.3 358h199.4v4.8H59.3z"/><path class="st4" d="M59.3 128h137.2v11H59.3zM59.3 267.5h118.2v11H59.3zM59.3 325.3h281.3v11H59.3zM59.3 341.6h74.8v11H59.3z"/></svg>