<svg xmlns="http://www.w3.org/2000/svg" viewBox="0 0 428.8 68.8"><style>.st0{fill:none;stroke:#FFF;stroke-width:3;stroke-miterlimit:10}.st1{display:none}.st2{display:inline;fill:none;stroke:#FFF;stroke-width:3;stroke-miterlimit:10}.st3{font-family:&amp;apos;Futura-Medium&amp;apos;}.st4{font-size:72px}</style><g id="OUTLINE"><path class="st0" d="M32.1 33.4h22.4v1.8c0 4.1-.5 7.7-1.4 10.8-.9 2.9-2.5 5.6-4.7 8.2-5 5.7-11.4 8.5-19.2 8.5-7.6 0-14.1-2.7-19.5-8.2C4.2 49 1.5 42.4 1.5 34.7c0-7.9 2.8-14.6 8.3-20C15.3 9.1 22 6.4 29.9 6.4c4.2 0 8.2.9 11.9 2.6 3.5 1.7 7 4.5 10.4 8.4L46.3 23c-4.5-5.9-9.9-8.9-16.3-8.9-5.7 0-10.6 2-14.4 5.9-3.9 3.9-5.8 8.8-5.8 14.6 0 6 2.2 11 6.5 14.9 4.1 3.6 8.4 5.4 13.2 5.4 4 0 7.7-1.4 10.9-4.1 3.2-2.7 5-6 5.4-9.8H32.1v-7.6zM94.8 15.1H73v13h21.1v7.7H73V54h21.8v7.7h-30V7.4h30v7.7zM105.6 61.7v-58l39.6 41.4V7.4h8.2V65l-39.6-41.3v38h-8.2zM196.3 15.1h-21.8v13h21.1v7.7h-21.1V54h21.8v7.7h-30V7.4h30v7.7zM225.4 38.6l16.8 23.1h-10l-15.5-22.2h-1.5v22.2H207V7.4h9.6c7.2 0 12.4 1.3 15.5 4 3.5 3 5.3 7 5.3 11.9 0 3.8-1.1 7.1-3.3 9.9-2.1 2.8-5 4.6-8.7 5.4zm-10.2-6.2h2.6c7.8 0 11.6-3 11.6-8.9 0-5.6-3.8-8.3-11.3-8.3h-2.9v17.2zM282.3 48.5h-23.2l-6 13.2h-8.8L271 4l26 57.7h-9l-5.7-13.2zm-3.3-7.7l-8.1-18.5-8.4 18.5H279zM311.9 7.4V54h16v7.7h-24.2V7.4h8.2zM343.9 7.4v54.3h-8.2V7.4h8.2zM387.6 15.5l-6.6 3.9c-1.2-2.2-2.4-3.6-3.6-4.2-1.2-.8-2.7-1.1-4.5-1.1-2.3 0-4.2.6-5.7 1.9-1.5 1.3-2.2 2.9-2.2 4.8 0 2.6 2 4.8 5.9 6.4l5.4 2.2c4.4 1.8 7.6 4 9.7 6.5s3.1 5.7 3.1 9.4c0 5-1.7 9.1-5 12.4-3.4 3.3-7.5 4.9-12.5 4.9-4.7 0-8.6-1.4-11.7-4.2-3-2.8-4.9-6.7-5.7-11.8l8.3-1.8c.4 3.2 1 5.4 2 6.6 1.7 2.3 4.1 3.5 7.4 3.5 2.6 0 4.7-.9 6.4-2.6 1.7-1.7 2.5-3.9 2.5-6.5 0-1.1-.1-2-.4-2.9s-.8-1.7-1.4-2.4-1.4-1.4-2.4-2.1c-1-.6-2.2-1.3-3.5-1.8l-5.2-2.2c-7.4-3.1-11.1-7.7-11.1-13.8 0-4.1 1.6-7.5 4.7-10.2 3.1-2.8 7-4.1 11.6-4.1 6.1.1 11 3.1 14.5 9.2zM414.9 15.1v46.6h-8.2V15.1h-12.5V7.4h33.1v7.7h-12.4z"/></g></svg>