<svg id="Layer_1" xmlns="http://www.w3.org/2000/svg" viewBox="0 0 358.9 59.3"><style>.st0{fill:none;stroke:#fff;stroke-width:3;stroke-miterlimit:10}.st1{fill:#fff}.st2{fill:#263f4d}</style><path class="st0" d="M35.1 10.6l-6.6 3.9c-1.2-2.2-2.4-3.6-3.6-4.2-1.2-.8-2.7-1.1-4.5-1.1-2.3 0-4.2.6-5.7 1.9-1.5 1.3-2.2 2.9-2.2 4.8 0 2.6 2 4.8 5.9 6.4l5.4 2.2c4.4 1.8 7.6 4 9.7 6.5s3.1 5.7 3.1 9.4c0 5-1.7 9.1-5 12.4-3.4 3.3-7.5 4.9-12.5 4.9-4.7 0-8.6-1.4-11.7-4.2-3-2.8-4.9-6.7-5.7-11.8L10 40c.4 3.2 1 5.4 2 6.6 1.7 2.3 4.1 3.5 7.4 3.5 2.6 0 4.7-.9 6.4-2.6s2.5-3.9 2.5-6.5c0-1.1-.1-2-.4-2.9-.3-.9-.8-1.7-1.4-2.4-.7-.7-1.5-1.4-2.5-2-1-.6-2.2-1.3-3.5-1.8l-5.2-2.2C7.8 26.5 4.1 21.9 4.1 15.9c0-4.1 1.6-7.5 4.7-10.2 3.1-2.8 7-4.1 11.6-4.1 6.3-.1 11.2 2.9 14.7 9zM46.4 56.8V2.6h11.4c5.5 0 9.8.5 12.9 1.6 3.4 1.1 6.5 2.8 9.2 5.4 5.6 5.1 8.4 11.8 8.4 20.1s-2.9 15.1-8.8 20.2c-2.9 2.6-6 4.4-9.2 5.4-3 1-7.3 1.5-12.8 1.5H46.4zm8.2-7.7h3.7c3.7 0 6.7-.4 9.2-1.2 2.4-.8 4.6-2.1 6.6-3.9 4-3.7 6-8.5 6-14.4 0-6-2-10.8-6-14.5-3.6-3.3-8.9-5-15.9-5h-3.7v39zM138.8 5.5v9.7c-4.7-4-9.6-5.9-14.7-5.9-5.6 0-10.3 2-14.1 6-3.8 4-5.8 8.9-5.8 14.6 0 5.7 1.9 10.5 5.8 14.4 3.8 3.9 8.6 5.9 14.1 5.9 2.9 0 5.3-.5 7.3-1.4 1.1-.5 2.3-1.1 3.5-1.9s2.5-1.8 3.8-2.9v9.9c-4.7 2.6-9.6 4-14.8 4-7.8 0-14.4-2.7-19.9-8.1-5.5-5.5-8.2-12-8.2-19.8 0-6.9 2.3-13.1 6.9-18.5 5.6-6.6 12.9-9.9 21.8-9.9 5-.1 9.7 1.2 14.3 3.9z"/><path class="st2" d="M210.9 1.7c0-.8.7-1.6 1.6-1.6h19.7c10 0 18.2 6.8 18.2 15.7 0 6.5-5.8 11.2-9.8 13.4 4.5 1.9 11.3 6 11.3 13.8 0 9.5-8.4 16.3-18.4 16.3h-21c-.9 0-1.6-.8-1.6-1.6v-56zm19.8 22.4c3.2 0 5.9-2.7 5.9-6.1s-2.7-5.7-5.9-5.7h-6.6v11.8h6.6zm1.1 23.1c3.3 0 6.1-2.7 6.1-6.2 0-3.4-3.6-5.9-6.9-5.9h-6.8v12.1h7.6zM262.7 1.7c0-.8.7-1.6 1.6-1.6h35c.9 0 1.6.8 1.6 1.6v9.2c0 .8-.7 1.6-1.6 1.6h-23.4v12.2h19.3c.8 0 1.6.8 1.6 1.6v9.2c0 .8-.8 1.6-1.6 1.6h-19.3v20.5c0 .8-.8 1.6-1.6 1.6h-10c-.9 0-1.6-.8-1.6-1.6V1.7zM310.2 2.1c0-1.1.8-2 2-2h9.9c1.1 0 2 .9 2 2v22.2L343 1c.3-.4 1.1-.8 1.6-.8h10.6c1.6 0 2.5 1.9 1.5 3.1L337 28l21.6 28.1c.9 1.3 0 3.1-1.6 3.1h-11.7c-.6 0-1.4-.3-1.5-.6l-19.5-26.5v25.2c0 1.1-.9 2-2 2h-9.9c-1.2 0-2-.9-2-2V2.1z"/><g><path class="st1" d="M161.9 32v-4.5h10.7V16.9h4.5v10.5h10.7V32h-10.7v10.5h-4.5V32h-10.7z"/></g></svg>