<svg xmlns="http://www.w3.org/2000/svg" viewBox="0 0 655.2 68.8"><style>.st0{display:none}.st1{display:inline;fill:none;stroke:#333;stroke-width:3;stroke-miterlimit:10}.st2{font-family:&amp;apos;Futura-Medium&amp;apos;}.st3{font-size:72px}.st4{fill:none;stroke:#333;stroke-width:3;stroke-miterlimit:10}</style><g id="OUTLINE"><path class="st4" d="M35.1 15.5l-6.6 3.9c-1.2-2.2-2.4-3.6-3.6-4.2-1.2-.8-2.7-1.1-4.5-1.1-2.3 0-4.2.6-5.7 1.9-1.5 1.3-2.2 2.9-2.2 4.8 0 2.6 2 4.8 5.9 6.4l5.4 2.2c4.4 1.8 7.6 4 9.7 6.5s3.1 5.7 3.1 9.4c0 5-1.7 9.1-5 12.4-3.4 3.3-7.5 4.9-12.5 4.9-4.7 0-8.6-1.4-11.7-4.2-3-2.8-4.9-6.7-5.7-11.8l8.3-1.8c.4 3.2 1 5.4 2 6.6 1.7 2.3 4.1 3.5 7.4 3.5 2.6 0 4.7-.9 6.4-2.6 1.7-1.7 2.5-3.9 2.5-6.5 0-1.1-.1-2-.4-2.9-.3-.9-.8-1.7-1.4-2.4-.6-.7-1.4-1.4-2.4-2.1-1-.6-2.2-1.3-3.5-1.8l-5.2-2.2c-7.6-3-11.3-7.6-11.3-13.6 0-4.1 1.6-7.5 4.7-10.2 3.1-2.8 7-4.1 11.6-4.1 6.3-.1 11.2 2.9 14.7 9zM76.3 15.1H54.6v13h21.1v7.7H54.6V54h21.8v7.7h-30V7.4h30v7.7zM114.2 15.1H95.3v13h18.2v7.7H95.3v25.8h-8.2V7.4h27.1v7.7zM153.6 15.1h-21.8v13H153v7.7h-21.1V54h21.8v7.7h-30V7.4h30v7.7zM182.8 38.6l16.8 23.1h-10l-15.5-22.2h-1.5v22.2h-8.2V7.4h9.6c7.2 0 12.4 1.3 15.5 4 3.5 3 5.3 7 5.3 11.9 0 3.8-1.1 7.1-3.3 9.9-2.2 2.8-5.1 4.6-8.7 5.4zm-10.2-6.2h2.6c7.8 0 11.6-3 11.6-8.9 0-5.6-3.8-8.3-11.3-8.3h-2.9v17.2zM230 61.7V7.4h11.4c5.5 0 9.8.5 12.9 1.6 3.4 1.1 6.5 2.8 9.2 5.4 5.6 5.1 8.4 11.8 8.4 20.1s-2.9 15.1-8.8 20.2c-2.9 2.6-6 4.4-9.2 5.4-3 1-7.3 1.5-12.8 1.5H230zm8.1-7.7h3.7c3.7 0 6.7-.4 9.2-1.2 2.4-.8 4.6-2.1 6.6-3.9 4-3.7 6-8.5 6-14.4 0-6-2-10.8-6-14.5-3.6-3.3-8.9-5-15.9-5H238v39zM312.2 15.1h-21.8v13h21.1v7.7h-21.1V54h21.8v7.7h-30V7.4h30v7.7zM353.6 15.5l-6.6 3.9c-1.2-2.2-2.4-3.6-3.6-4.2-1.2-.8-2.7-1.1-4.5-1.1-2.3 0-4.2.6-5.7 1.9-1.5 1.3-2.2 2.9-2.2 4.8 0 2.6 2 4.8 5.9 6.4l5.4 2.2c4.4 1.8 7.6 4 9.7 6.5s3.1 5.7 3.1 9.4c0 5-1.7 9.1-5 12.4-3.4 3.3-7.5 4.9-12.5 4.9-4.7 0-8.6-1.4-11.7-4.2-3-2.8-4.9-6.7-5.7-11.8l8.3-1.8c.4 3.2 1 5.4 2 6.6 1.7 2.3 4.1 3.5 7.4 3.5 2.6 0 4.7-.9 6.4-2.6 1.7-1.7 2.5-3.9 2.5-6.5 0-1.1-.1-2-.4-2.9s-.8-1.7-1.4-2.4-1.4-1.4-2.4-2.1c-1-.6-2.2-1.3-3.5-1.8l-5.2-2.2c-7.4-3.1-11.1-7.7-11.1-13.8 0-4.1 1.6-7.5 4.7-10.2 3.1-2.8 7-4.1 11.6-4.1 6.1.1 11 3.1 14.5 9.2zM373.1 7.4v54.3h-8.2V7.4h8.2zM414.1 33.4h22.4v1.8c0 4.1-.5 7.7-1.4 10.8-.9 2.9-2.5 5.6-4.7 8.2-5 5.7-11.4 8.5-19.2 8.5-7.6 0-14.1-2.7-19.5-8.2-5.4-5.5-8.1-12.1-8.1-19.8 0-7.9 2.8-14.6 8.3-20 5.5-5.5 12.2-8.3 20.1-8.3 4.2 0 8.2.9 11.9 2.6 3.5 1.7 7 4.5 10.4 8.4l-5.8 5.6c-4.5-5.9-9.9-8.9-16.3-8.9-5.7 0-10.6 2-14.4 5.9-3.9 3.9-5.8 8.8-5.8 14.6 0 6 2.2 11 6.5 14.9 4.1 3.6 8.4 5.4 13.2 5.4 4 0 7.7-1.4 10.9-4.1 3.2-2.7 5-6 5.4-9.8h-13.5v-7.6zM446.8 61.7v-58l39.6 41.4V7.4h8.2V65L455 23.7v38h-8.2zM569.9 10.3V20c-4.7-4-9.6-5.9-14.7-5.9-5.6 0-10.3 2-14.1 6-3.8 4-5.8 8.9-5.8 14.6 0 5.7 1.9 10.5 5.8 14.4 3.8 3.9 8.6 5.9 14.1 5.9 2.9 0 5.3-.5 7.3-1.4 1.1-.5 2.3-1.1 3.5-1.9 1.2-.8 2.5-1.8 3.8-2.9v9.9c-4.7 2.6-9.6 4-14.8 4-7.8 0-14.4-2.7-19.9-8.1-5.5-5.5-8.2-12-8.2-19.8 0-6.9 2.3-13.1 6.9-18.5 5.6-6.6 12.9-9.9 21.8-9.9 5.1 0 9.8 1.3 14.3 3.9zM577.2 34.3c0-7.6 2.8-14.2 8.4-19.7 5.6-5.5 12.3-8.2 20.1-8.2 7.7 0 14.4 2.8 19.9 8.3 5.6 5.5 8.3 12.2 8.3 19.9 0 7.8-2.8 14.4-8.4 19.9-5.6 5.5-12.4 8.2-20.3 8.2-7 0-13.3-2.4-18.9-7.3-6-5.3-9.1-12.4-9.1-21.1zm8.3.1c0 6 2 10.9 6 14.8 4 3.9 8.6 5.8 13.9 5.8 5.7 0 10.5-2 14.4-5.9 3.9-4 5.9-8.8 5.9-14.6 0-5.8-1.9-10.6-5.8-14.6-3.8-3.9-8.6-5.9-14.3-5.9-5.6 0-10.4 2-14.3 5.9-3.9 4-5.8 8.8-5.8 14.5zM644 57.8c0-1.3.5-2.4 1.4-3.4 1-1 2.1-1.4 3.4-1.4s2.5.5 3.4 1.4c1 1 1.4 2.1 1.4 3.4 0 1.4-.5 2.5-1.4 3.5-.9.9-2.1 1.4-3.4 1.4-1.4 0-2.5-.5-3.5-1.4-.9-.9-1.3-2.1-1.3-3.5z"/></g></svg>