<svg xmlns="http://www.w3.org/2000/svg" viewBox="0 0 468.6 69.9">
	<title>Sefer Design Co.</title>
  <path fill="currentColor" d="M26.6 16.3c-2.8-3.7-6.1-4.1-7.8-4.1-5 0-6.6 3.2-6.6 5.6 0 1.2.4 2.2 1.5 3.2 1.2 1.1 2.7 1.7 5.8 2.7 3.7 1.3 7.3 2.6 9.7 4.8 2.2 1.9 4.1 5.2 4.1 10.1 0 9.4-6.8 15.8-16.7 15.8-8.9 0-14-5.4-16.6-9.1l6.1-5.8c2.3 4.7 6.7 6.4 10.1 6.4 4.2 0 7.4-2.6 7.4-6.6 0-1.7-.6-3.1-1.9-4.3-1.8-1.7-4.7-2.6-7.4-3.5-2.5-.9-5.5-2-8-4.2-1.6-1.4-3.8-4-3.8-8.9 0-7.1 4.8-14.1 15.4-14.1 3 0 8.7.6 13.6 5.6l-4.9 6.4zM70.8 44.6c-.9 2.3-4.5 9.7-15.3 9.7-5 0-8.9-1.4-12-4.4-3.5-3.2-4.9-7.3-4.9-12.2 0-6.2 2.5-10 4.8-12.2 3.7-3.6 8-4.4 11.7-4.4 6.3 0 10 2.5 12.2 5.1 3.3 4 3.7 8.9 3.7 12.2v.7H47.7c0 1.9.5 3.9 1.5 5.3.9 1.3 2.9 3 6.3 3 3.3 0 5.8-1.6 7.3-4.1l8 1.3zm-8.1-11c-.7-4.2-4.2-6.3-7.4-6.3s-6.6 2.1-7.3 6.3h14.7zM86.7 29.7v23.7h-8.8V29.7h-3.3v-7.5h3.3v-8.6c0-2.9.2-7.8 4.1-11C83.9 1 86.5 0 89.7 0c1.9 0 3.5.4 5 1.1v8c-1.2-.9-2.4-1.3-4-1.3-1.2 0-2.3.3-3.2 1.6-.7 1.2-.9 2.8-.9 5.4v7.4h8.1v7.5h-8zM129.4 44.6c-.9 2.3-4.5 9.7-15.3 9.7-5 0-8.9-1.4-12-4.4-3.5-3.2-4.9-7.3-4.9-12.2 0-6.2 2.5-10 4.8-12.2 3.7-3.6 8-4.4 11.7-4.4 6.3 0 10 2.5 12.2 5.1 3.3 4 3.7 8.9 3.7 12.2v.7h-23.3c0 1.9.5 3.9 1.5 5.3.9 1.3 2.9 3 6.3 3 3.3 0 5.8-1.6 7.3-4.1l8 1.3zm-8.1-11c-.7-4.2-4.2-6.3-7.4-6.3s-6.6 2.1-7.3 6.3h14.7zM136.4 22.2h8.8v4.7c1.4-2.7 3.2-4 3.9-4.3 1.4-.9 3.1-1.4 5.2-1.4 1.5 0 2.7.4 3.7.7l-1.2 8.2c-1.2-.8-2.3-1.2-4.1-1.2-1.7 0-4.1.4-5.8 2.5-1.7 2.1-1.7 4.8-1.7 6.9v15h-8.8V22.2zM176.1 5.3c6.7 0 12.5.7 17.9 4.7 5.8 4.4 9.2 11.4 9.2 19.4 0 8-3.3 14.9-9.6 19.4-5.6 4-10.9 4.6-17.6 4.6h-12.4v-48h12.5zm-3.2 40h2.9c2.4 0 7.6-.1 11.7-3.2 3.8-2.7 6-7.6 6-12.7 0-5-2.1-9.9-5.9-12.8-3.9-2.9-8.6-3.2-11.8-3.2h-2.9v31.9zM241.1 44.6c-.9 2.3-4.5 9.7-15.3 9.7-5 0-8.9-1.4-12-4.4-3.5-3.2-4.9-7.3-4.9-12.2 0-6.2 2.5-10 4.8-12.2 3.7-3.6 8-4.4 11.7-4.4 6.3 0 10 2.5 12.2 5.1 3.3 4 3.7 8.9 3.7 12.2v.7H218c0 1.9.5 3.9 1.5 5.3.9 1.3 2.9 3 6.3 3 3.3 0 5.8-1.6 7.3-4.1l8 1.3zm-8-11c-.7-4.2-4.2-6.3-7.4-6.3s-6.6 2.1-7.3 6.3h14.7zM265.1 29.6c-2.1-1.9-4.2-2.1-5.1-2.1-2.1 0-3.4 1-3.4 2.5 0 .8.4 2 2.8 2.8l2.1.6c2.4.8 6.1 2 7.9 4.5.9 1.3 1.6 3.2 1.6 5.2 0 2.8-.9 5.6-3.5 7.9-2.5 2.3-5.5 3.3-9.4 3.3-6.5 0-10.2-3.1-12.1-5.2l4.6-5.3c1.7 2 4.3 3.6 6.9 3.6 2.4 0 4.3-1.2 4.3-3.4 0-1.9-1.6-2.7-2.7-3.2l-2-.7c-2.2-.8-4.8-1.8-6.7-3.7-1.4-1.5-2.4-3.5-2.4-6 0-3 1.4-5.5 3.2-7.1 2.4-1.9 5.6-2.2 8.1-2.2 2.3 0 6 .3 9.9 3.3l-4.1 5.2zM281.6 3.7c2.9 0 5.3 2.4 5.3 5.3s-2.4 5.3-5.3 5.3-5.3-2.4-5.3-5.3 2.4-5.3 5.3-5.3zm4.4 18.5v31.2h-8.8V22.2h8.8zM318.1 22.2h8.8v29.7c0 4.8-.4 9.7-4.3 13.6-2.2 2.2-5.9 4.4-12.3 4.4-6 0-9.6-1.8-11.7-3.6-2.4-2.1-4.3-5.8-5-9.3h9.5c.4 1.4 1.2 2.9 2.2 3.7 1.7 1.6 4.1 1.7 5.3 1.7 2.5 0 4.2-.9 5.3-1.9 2-1.9 2.2-4.4 2.2-6.9v-4.4c-3 4.6-7.2 5.2-9.6 5.2-4.2 0-7.8-1.3-10.8-4.2-2.3-2.3-5-6.3-5-12.4 0-4.9 1.8-9.4 4.8-12.4 2.7-2.7 6.6-4.2 10.7-4.2 5.8 0 8.6 3.2 9.8 5v-4zm-13.5 8.9c-1.4 1.3-2.8 3.4-2.8 6.6 0 2.7 1 4.8 2.3 6.1 1.9 2 4.2 2.7 6.3 2.7 2.2 0 4.3-.8 5.8-2.2 1.8-1.7 2.8-4.2 2.8-6.7 0-3-1.3-5-2.5-6.3-1.7-1.8-3.7-2.5-6.1-2.5-2.7.1-4.7 1.3-5.8 2.3zM335.2 22.2h8.8v4c1.7-2.3 4.6-5 9.6-5 2.7 0 6.8.8 9.2 3.8 2.2 2.7 2.4 5.8 2.4 8.8v19.6h-8.8v-17c0-1.7-.1-4.5-1.7-6.1-1.4-1.4-3.2-1.6-4.1-1.6-2.3 0-4.1.8-5.4 2.7-1.3 2-1.4 4.2-1.4 6v15.9H335V22.2zM409.8 51.6c-2.9 1.5-6.7 2.8-11.9 2.8-8.4 0-13.5-2.9-17.6-6.7-5.5-5.3-7.7-11.3-7.7-18.4 0-8.7 3.6-15 7.7-18.8 4.8-4.5 10.8-6.3 17.6-6.3 3.4 0 7.4.6 11.8 3v10.9c-4.4-5-9.9-5.4-11.6-5.4-9.6 0-15.9 7.9-15.9 16.8 0 10.7 8.2 16.4 16.3 16.4 4.5 0 8.4-1.9 11.2-5.3v11zM446 25.6c3.1 2.8 5.3 7.1 5.3 12.2 0 5-2.2 9.4-5.3 12.2-2.7 2.4-6.7 4.4-12.6 4.4s-9.9-1.9-12.6-4.4c-3.1-2.8-5.3-7.1-5.3-12.2s2.2-9.4 5.3-12.2c2.7-2.4 6.7-4.4 12.6-4.4s10 1.9 12.6 4.4zm-3.8 12.2c0-4.9-3.7-8.9-8.8-8.9-5 0-8.8 4-8.8 8.9 0 4.8 3.7 8.8 8.8 8.8s8.8-4 8.8-8.8zM463 43.1c3.2 0 5.6 2.4 5.6 5.6 0 3.2-2.4 5.6-5.6 5.6-3.2 0-5.6-2.4-5.6-5.6-.1-3.2 2.4-5.6 5.6-5.6z"/>
</svg>
