<svg xmlns="http://www.w3.org/2000/svg" viewBox="0 0 468.6 69.9"><path fill="currentColor" d="M55.1 21.1c-3.7 0-8 .8-11.7 4.4-2.3 2.2-4.8 6-4.8 12.2 0 4.9 1.4 9 4.9 12.2 3.1 3 7 4.4 12 4.4 10.8 0 14.4-7.4 15.3-9.7l-8-1.3c-1.5 2.5-4 4.1-7.3 4.1-3.4 0-5.4-1.7-6.3-3-1-1.4-1.5-3.4-1.5-5.3H71v-.7c0-3.3-.4-8.2-3.7-12.2-2.2-2.6-5.9-5.1-12.2-5.1zM48 33.6c.7-4.2 4.1-6.3 7.3-6.3s6.7 2.1 7.4 6.3H48zM194 10c-5.4-4-11.2-4.7-17.9-4.7v.1h-12.5v48H176c6.7 0 12-.6 17.6-4.6 6.3-4.5 9.6-11.4 9.6-19.4s-3.4-15-9.2-19.4zm-6.5 32.1c-4.1 3.1-9.3 3.2-11.7 3.2h-2.9V13.4h2.9c3.2 0 7.9.3 11.8 3.2 3.8 2.9 5.9 7.8 5.9 12.8 0 5.1-2.2 10-6 12.7zM29.2 28.5c-2.4-2.2-6-3.5-9.7-4.8-3.1-1-4.6-1.6-5.8-2.7-1.1-1-1.5-2-1.5-3.2 0-2.4 1.6-5.6 6.6-5.6 1.7 0 5 .4 7.8 4.1l4.9-6.4c-4.9-5-10.6-5.6-13.6-5.6-10.6 0-15.4 7-15.4 14.1 0 4.9 2.2 7.5 3.8 8.9 2.5 2.2 5.5 3.3 8 4.2 2.7.9 5.6 1.8 7.4 3.5 1.3 1.2 1.9 2.6 1.9 4.3 0 4-3.2 6.6-7.4 6.6-3.4 0-7.8-1.7-10.1-6.4L0 45.3c2.6 3.7 7.7 9.1 16.6 9.1 9.9 0 16.7-6.4 16.7-15.8 0-4.9-1.9-8.2-4.1-10.1zM82 2.6c-3.9 3.2-4.1 8.1-4.1 11v8.6h-3.3v7.5h3.3v23.7h8.8V29.7h8v-7.5h-8.1v-7.4c0-2.6.2-4.2.9-5.4.9-1.3 2-1.6 3.2-1.6 1.6 0 2.8.4 4 1.3v-8C93.2.4 91.6 0 89.7 0c-3.2 0-5.8 1-7.7 2.6zm31.7 18.5c-3.7 0-8 .8-11.7 4.4-2.3 2.2-4.8 6-4.8 12.2 0 4.9 1.4 9 4.9 12.2 3.1 3 7 4.4 12 4.4 10.8 0 14.4-7.4 15.3-9.7l-8-1.3c-1.5 2.5-4 4.1-7.3 4.1-3.4 0-5.4-1.7-6.3-3-1-1.4-1.5-3.4-1.5-5.3h23.3v-.7c0-3.3-.4-8.2-3.7-12.2-2.2-2.6-5.9-5.1-12.2-5.1zm-7.1 12.5c.7-4.2 4.1-6.3 7.3-6.3s6.7 2.1 7.4 6.3h-14.7zm42.5-11c-.7.3-2.5 1.6-3.9 4.3v-4.7h-8.8v31.1h8.8v-15c0-2.1 0-4.8 1.7-6.9 1.7-2.1 4.1-2.5 5.8-2.5 1.8 0 2.9.4 4.1 1.2l1.2-8.2c-1-.3-2.2-.7-3.7-.7-2.1 0-3.8.5-5.2 1.4zm112.4 10.8l-2.1-.6c-2.4-.8-2.8-2-2.8-2.8 0-1.5 1.3-2.5 3.4-2.5.9 0 3 .2 5.1 2.1l4.1-5.2c-3.9-3-7.6-3.3-9.9-3.3-2.5 0-5.7.3-8.1 2.2-1.8 1.6-3.2 4.1-3.2 7.1 0 2.5 1 4.5 2.4 6 1.9 1.9 4.5 2.9 6.7 3.7l2 .7c1.1.5 2.7 1.3 2.7 3.2 0 2.2-1.9 3.4-4.3 3.4-2.6 0-5.2-1.6-6.9-3.6l-4.6 5.3c1.9 2.1 5.6 5.2 12.1 5.2 3.9 0 6.9-1 9.4-3.3 2.6-2.3 3.5-5.1 3.5-7.9 0-2-.7-3.9-1.6-5.2-1.8-2.5-5.5-3.7-7.9-4.5zm148.2 7.2c-2.8 3.4-6.7 5.3-11.2 5.3-8.1 0-16.3-5.7-16.3-16.4 0-8.9 6.3-16.8 15.9-16.8 1.7 0 7.2.4 11.6 5.4V7.2c-4.4-2.4-8.4-3-11.8-3-6.8 0-12.8 1.8-17.6 6.3-4.1 3.8-7.7 10.1-7.7 18.8 0 7.1 2.2 13.1 7.7 18.4 4.1 3.8 9.2 6.7 17.6 6.7 5.2 0 9-1.3 11.9-2.8h-.1v-11zm-56.1-19.4c-5 0-7.9 2.7-9.6 5v-4h-9v31.1h8.8V37.4c0-1.8.1-4 1.4-6 1.3-1.9 3.1-2.7 5.4-2.7.9 0 2.7.2 4.1 1.6 1.6 1.6 1.7 4.4 1.7 6.1v17h8.8V33.8c0-3-.2-6.1-2.4-8.8-2.4-3-6.5-3.8-9.2-3.8zm79.8 0c-5.9 0-9.9 2-12.6 4.4-3.1 2.8-5.3 7.1-5.3 12.2s2.2 9.4 5.3 12.2c2.7 2.5 6.7 4.4 12.6 4.4 5.9 0 9.9-2 12.6-4.4 3.1-2.8 5.3-7.2 5.3-12.2 0-5.1-2.2-9.4-5.3-12.2-2.6-2.5-6.7-4.4-12.6-4.4zm0 25.4c-5.1 0-8.8-4-8.8-8.8 0-4.9 3.8-8.9 8.8-8.9 5.1 0 8.8 4 8.8 8.9 0 4.8-3.7 8.8-8.8 8.8zm-208-25.5c-3.7 0-8 .8-11.7 4.4-2.3 2.2-4.8 6-4.8 12.2 0 4.9 1.4 9 4.9 12.2 3.1 3 7 4.4 12 4.4 10.8 0 14.4-7.4 15.3-9.7l-8-1.3c-1.5 2.5-4 4.1-7.3 4.1-3.4 0-5.4-1.7-6.3-3-1-1.4-1.5-3.4-1.5-5.3h23.3v-.7c0-3.3-.4-8.2-3.7-12.2-2.2-2.6-5.9-5.1-12.2-5.1zm-7 12.5c.7-4.2 4.1-6.3 7.3-6.3s6.7 2.1 7.4 6.3h-14.7zM463 43.1c-3.2 0-5.7 2.4-5.6 5.6 0 3.2 2.4 5.6 5.6 5.6s5.6-2.4 5.6-5.6-2.4-5.6-5.6-5.6zM277.2 22.2h8.8v31.2h-8.8z"/><circle fill="currentColor" cx="281.6" cy="9" r="5.3"/><path fill="currentColor" d="M318 22.2v4c-1.2-1.8-4-5-9.8-5-4.1 0-8 1.5-10.7 4.2-3 3-4.8 7.5-4.8 12.4 0 6.1 2.7 10.1 5 12.4 3 2.9 6.6 4.2 10.8 4.2 2.4 0 6.6-.6 9.6-5.2v4.4c0 2.5-.2 5-2.2 6.9-1.1 1-2.8 1.9-5.3 1.9-1.2 0-3.6-.1-5.3-1.7-1-.8-1.8-2.3-2.2-3.7h-9.5c.7 3.5 2.6 7.2 5 9.3 2.1 1.8 5.7 3.6 11.7 3.6 6.4 0 10.1-2.2 12.3-4.4 3.9-3.9 4.3-8.8 4.3-13.6V22.2H318zm-1.8 22.1c-1.5 1.4-3.6 2.2-5.8 2.2-2.1 0-4.4-.7-6.3-2.7-1.3-1.3-2.3-3.4-2.3-6.1 0-3.2 1.4-5.3 2.8-6.6 1.1-1 3.1-2.2 5.8-2.3 2.4 0 4.4.7 6.1 2.5 1.2 1.3 2.5 3.3 2.5 6.3 0 2.5-1 5-2.8 6.7z"/></svg>