<?xml version="1.0" encoding="UTF-8"?>
<svg width="5603px" height="3142px" viewBox="0 0 5603 3142" version="1.1" xmlns="http://www.w3.org/2000/svg" xmlns:xlink="http://www.w3.org/1999/xlink">
    <!-- Generator: Sketch 46.2 (44496) - http://www.bohemiancoding.com/sketch -->
    <title>devices@2x</title>
    <desc>Created with Sketch.</desc>
    <defs></defs>
    <g id="Page-1" stroke="none" stroke-width="1" fill="none" fill-rule="evenodd">
        <g id="iMac-21-5-inches" transform="translate(1151.000000, 0.000000)" fill-rule="nonzero">
            <g id="Body" transform="translate(0.000000, 2063.000000)">
                <path d="M1244.06,908.23 C1179.336,908.23 1137.971,903.408 1134.389,893.557 L1134.389,880.719 L2278.869,880.719 L2278.869,893.557 C2275.287,903.408 2233.922,908.23 2169.198,908.23 L1244.064,908.23 L1244.06,908.23 Z" id="Leg-Front" fill="#D5D2CF"></path>
                <path d="M1242.46,897.23 C1189.801,897.23 1135.303,894.21 1134.39,880.723 C1144.004,860.504 1266.631,794.672 1282.594,764.908 C1306.273,732.771 1324.16,533.034 1334.648,387.351 L2078.608,387.351 C2089.096,533.034 2106.983,732.771 2130.662,764.908 C2146.625,794.672 2269.252,860.504 2278.866,880.723 C2277.953,894.21 2223.455,897.23 2170.796,897.23 L1242.46,897.23 L1242.46,897.23 Z" id="Leg" fill="#C3C3C3"></path>
                <path d="M3413.25,0.36 L0,0.36 L0,286.479 C0,342.154 45.201,387.354 100.875,387.354 L3312.375,387.354 C3368.049,387.354 3413.25,342.154 3413.25,286.479 L3413.25,0.36 L3413.25,0.36 Z" id="Body1" fill="#D5D2CF"></path>
            </g>
            <g id="Screen">
                <path d="M3413.25,100.875 C3413.25,45.201 3368.049,0 3312.375,0 L100.965,0 C45.242,0 0.002,45.24 0.002,100.963 L0.002,2063.353 L3413.252,2063.353 L3413.252,100.873 L3413.25,100.875 Z" id="Black-Frame" fill="#343434"></path>
                <path d="M3246.38,167.542 C3246.38,165.518 3244.737,163.875 3242.713,163.875 L170.543,163.875 C168.519,163.875 166.876,165.518 166.876,167.542 L166.876,1895.712 C166.876,1897.736 168.519,1899.379 170.543,1899.379 L3242.713,1899.379 C3244.737,1899.379 3246.38,1897.736 3246.38,1895.712 L3246.38,167.542 L3246.38,167.542 Z" id="Screen-Frame" fill="#343434"></path>
                <rect id="Screen1-Copy" fill="#2BC4E7" x="170.625" y="167.678" width="3072" height="1728"></rect>
            </g>
        </g>
        <g id="iPad-Air-2-•-iPad-Pro-9.7-Space-Gray" transform="translate(3881.000000, 1036.000000)" fill-rule="nonzero">
            <g id="Body" transform="translate(9.000000, 10.000000)">
                <path d="M1327.30356,20.3309017 C1313.00101,6.93904369 1292.06011,0.429618932 1263.28673,0.429618932 L80.6138426,0.429618932 C66.6129236,0.429618932 54.1798966,2.41331068 43.6590465,6.32485922 C33.3762493,10.1480024 24.8807869,15.8330862 18.4099368,23.2234624 C6.19635267,37.1697925 0.00232624928,57.4371044 0.00232624928,83.4608447 L0.00232624928,1833.61515 C0.00232624928,1859.54041 6.21961516,1879.78368 18.4789489,1893.78352 C31.7649339,1908.95434 52.441413,1916.64638 79.9353532,1916.64638 L1263.29061,1916.64638 C1292.70758,1916.64638 1313.79968,1910.28817 1327.77036,1897.20806 C1334.70724,1890.71337 1340.01574,1882.28617 1343.54854,1872.16066 C1347.31783,1861.3597 1349.22924,1848.23848 1349.22924,1833.16304 L1349.22924,83.9160546 C1349.22924,68.8398422 1347.31783,55.7201796 1343.54854,44.9192184 C1340.27705,35.5451505 1334.96468,27.502591 1327.30744,20.3332282 L1327.30356,20.3309017 Z" id="Body1" fill="#343434"></path>
                <g id="Screen" transform="translate(72.889144, 159.750000)">
                    <path d="M1197.24296,0.424190534 L6.20333142,0.424190534 C2.77831706,0.424190534 0.000775416427,3.20197937 0.000775416427,6.62807403 L0.000775416427,1594.82225 C0.000775416427,1596.46783 0.653676048,1598.04594 1.81680069,1599.20995 C2.98070075,1600.37317 4.55789776,1601.02613 6.20333142,1601.02613 L1197.24296,1601.02613 C1200.66875,1601.02613 1203.44707,1598.24834 1203.44707,1594.82225 L1203.44707,6.62807403 C1203.44707,3.20197937 1200.66875,0.424190534 1197.24296,0.424190534 L1197.24296,0.424190534 Z" id="Screen-Frame" fill="#343434"></path>
                    <rect id="Screen---Off-Copy-2" fill="#EDE039" x="6.2072085" y="6.62807403" width="1191.03963" height="1588.19417"></rect>
                </g>
            </g>
        </g>
        <g id="MacBook-Pro-TouchBar-15-inches-Space-Gray" transform="translate(0.000000, 1521.000000)" fill-rule="nonzero">
            <g id="MacBook-Pro-13-Screen" transform="translate(236.000000, 0.000000)">
                <g id="Frames" fill="#343434">
                    <g id="Group">
                        <rect id="Metal-Frame" x="0.748876531" y="0" width="2289.78456" height="1580.85633" rx="67"></rect>
                        <rect id="Plastic-Band" x="4.73365139" y="4" width="2280.80849" height="1572.01716" rx="62"></rect>
                        <rect id="Black-Frame" x="9.71461995" y="9" width="2271.83242" height="1563.17859" rx="59"></rect>
                    </g>
                </g>
                <g id="Screen" transform="translate(66.000000, 96.000000)" fill="#F83624">
                    <rect id="Screen---Off-Copy" x="0" y="-4.79616346e-13" width="2160" height="1350"></rect>
                </g>
            </g>
            <g id="MacBook-Pro-13-Body" transform="translate(0.000000, 1541.000000)">
                <path d="M0,40 L2763.75,40 C2744.911,60.57 2677.704,79.628 2629.523,79.628 L134.223,79.628 C86.046,79.628 18.839,60.57 0,40 Z" id="Bottom-Body" fill="#C3C3C3"></path>
                <polygon id="Top-Body" fill="#D5D2CF" points="0 39.5779951 0 0 2763.61011 0 2763.61011 39.578"></polygon>
                <path d="M1206.46,32.25 C1193.283,32.25 1179.614,15.7 1179.614,0.291 L1586.13,0.291 C1586.13,15.7 1572.461,32.25 1559.284,32.25 L1206.46,32.25 L1206.46,32.25 Z" id="Hollow" fill="#C3C3C3"></path>
            </g>
        </g>
        <g id="iPhone-7-Black" transform="translate(4898.000000, 1708.000000)" fill-rule="nonzero">
            <g id="Body" transform="translate(14.000000, 11.000000)">
                <path d="M617.246837,7.75057389 C604.283584,2.64017136 589.368524,0.047973548 572.916416,0.047973548 L102.091717,0.047973548 C85.6379819,0.047973548 70.7229217,2.64017136 57.7588554,7.75057389 C45.4600301,12.5999678 34.8771687,19.7382691 26.3046687,28.9670788 C9.10436747,47.4856814 0.0130120482,74.4573859 0.0130120482,106.968002 L0.0130120482,1306.3311 C0.0130120482,1338.8474 9.10436747,1365.8183 26.3046687,1384.33283 C34.8771687,1393.56977 45.4600301,1400.70076 57.7588554,1405.55503 C70.7229217,1410.66137 85.6379819,1413.25519 102.091717,1413.25519 L572.916416,1413.25519 C589.368524,1413.25519 604.283584,1410.66137 617.246837,1405.55503 C629.551355,1400.70076 640.131777,1393.56977 648.703464,1384.33283 C665.903765,1365.8183 674.995934,1338.8474 674.995934,1306.3311 L674.995934,106.968002 C674.995934,74.4573859 665.903765,47.4856814 648.703464,28.9670788 C640.131777,19.7382691 629.551355,12.5999678 617.246837,7.75057389 L617.246837,7.75057389 Z" id="Front" fill="#343434"></path>
                <g id="Screen" transform="translate(29.277108, 160.995975)">
                    <path d="M3.25707831,0.0577308798 L2.01198795,0.304916619 L0.957198795,1.00988384 L0.251295181,2.0653019 L0.00406626506,3.31017481 L0.00406626506,1088.00023 L0.251295181,1089.24429 L0.957198795,1090.2997 L2.01198795,1091.00467 L3.25707831,1091.25267 L613.196837,1091.25267 L614.441928,1091.00467 L615.496717,1090.2997 L616.20262,1089.24429 L616.449849,1088.00023 L616.449849,3.31017481 L616.20262,2.0653019 C615.501596,1.01720184 615.489398,1.00500518 614.441928,0.304916619 L613.196837,0.0577308798 L3.25707831,0.0577308798 L3.25707831,0.0577308798 Z" id="Screen-Panel" fill="#343434"></path>
                    <rect id="Screen---off-Copy" fill="#389E3D" x="3.25707831" y="3.3093617" width="609.939759" height="1084.69005"></rect>
                </g>
            </g>
        </g>
    </g>
</svg>