<?xml version="1.0" encoding="utf-8"?>
<!-- Generator: Adobe Illustrator 19.2.0, SVG Export Plug-In . SVG Version: 6.00 Build 0)  -->
<svg version="1.1" xmlns="http://www.w3.org/2000/svg" xmlns:xlink="http://www.w3.org/1999/xlink" x="0px" y="0px"
	 viewBox="0 0 140.3 59.3" style="enable-background:new 0 0 140.3 59.3;" xml:space="preserve">
<style type="text/css">
	.st0{display:none;}
	.st1{display:inline;fill:none;stroke:#333333;stroke-width:3;stroke-miterlimit:10;}
	.st2{font-family:'Futura-Medium';}
	.st3{font-size:72px;}
	.st4{fill:none;stroke:#333333;stroke-width:3;stroke-miterlimit:10;}
</style>
<g id="OUTLINE">
	<g>
		<path class="st4" d="M35.1,10.6l-6.6,3.9c-1.2-2.2-2.4-3.6-3.6-4.2c-1.2-0.8-2.7-1.1-4.5-1.1c-2.3,0-4.2,0.6-5.7,1.9
			c-1.5,1.3-2.2,2.9-2.2,4.8c0,2.6,2,4.8,5.9,6.4l5.4,2.2c4.4,1.8,7.6,4,9.7,6.5s3.1,5.7,3.1,9.4c0,5-1.7,9.1-5,12.4
			c-3.4,3.3-7.5,4.9-12.5,4.9c-4.7,0-8.6-1.4-11.7-4.2c-3-2.8-4.9-6.7-5.7-11.8L10,40c0.4,3.2,1,5.4,2,6.6c1.7,2.3,4.1,3.5,7.4,3.5
			c2.6,0,4.7-0.9,6.4-2.6s2.5-3.9,2.5-6.5c0-1.1-0.1-2-0.4-2.9c-0.3-0.9-0.8-1.7-1.4-2.4C25.8,35,25,34.3,24,33.7
			c-1-0.6-2.2-1.3-3.5-1.8l-5.2-2.2C7.8,26.5,4.1,21.9,4.1,15.9c0-4.1,1.6-7.5,4.7-10.2c3.1-2.8,7-4.1,11.6-4.1
			C26.7,1.5,31.6,4.5,35.1,10.6z"/>
		<path class="st4" d="M46.4,56.8V2.6h11.4c5.5,0,9.8,0.5,12.9,1.6c3.4,1.1,6.5,2.8,9.2,5.4c5.6,5.1,8.4,11.8,8.4,20.1
			c0,8.3-2.9,15.1-8.8,20.2c-2.9,2.6-6,4.4-9.2,5.4c-3,1-7.3,1.5-12.8,1.5H46.4z M54.6,49.1h3.7c3.7,0,6.7-0.4,9.2-1.2
			c2.4-0.8,4.6-2.1,6.6-3.9c4-3.7,6-8.5,6-14.4c0-6-2-10.8-6-14.5c-3.6-3.3-8.9-5-15.9-5h-3.7V49.1z"/>
		<path class="st4" d="M138.8,5.5v9.7c-4.7-4-9.6-5.9-14.7-5.9c-5.6,0-10.3,2-14.1,6c-3.8,4-5.8,8.9-5.8,14.6
			c0,5.7,1.9,10.5,5.8,14.4c3.8,3.9,8.6,5.9,14.1,5.9c2.9,0,5.3-0.5,7.3-1.4c1.1-0.5,2.3-1.1,3.5-1.9s2.5-1.8,3.8-2.9v9.9
			c-4.7,2.6-9.6,4-14.8,4c-7.8,0-14.4-2.7-19.9-8.1c-5.5-5.5-8.2-12-8.2-19.8c0-6.9,2.3-13.1,6.9-18.5c5.6-6.6,12.9-9.9,21.8-9.9
			C129.5,1.5,134.2,2.8,138.8,5.5z"/>
	</g>
</g>
</svg>
