<svg xmlns="http://www.w3.org/2000/svg" viewBox="0 0 250 400"><title>skyline</title><rect width="250" height="400" fill="#003853"/><rect y="263" width="250" height="137" fill="#001630"/><path d="M233,263.3h0q0-77.7,0-155.5c0-.1-.1-.3-.3-.6H202.1V263.3Z" transform="translate(0 0)" fill="#001630"/><path d="M188.2,263.3V213.2h-8v-32H131.1v31.7H122v50.4Z" transform="translate(0 0)" fill="#001630"/><path d="M57,263.3h0q0-45.2,0-90.5c0-.1-.1-.3-.3-.6H47.1V112.1H42.2v-33c-3.4-.1-6.6,0-10-.1v32.9H26.1v60.1H17v91.4Z" transform="translate(0 0)" fill="#001630"/><path d="M105,263.3h0q0-47.2,0-94.5c0-.1-.1-.3-.3-.6H99.1v-27H96.2v26.7h-11V141.2l-3.1-.2v27H77v95.4Z" transform="translate(0 0)" fill="#001630"/><path d="M232.9,277.2V301H17.1c-.1-7.9,0-15.8-.1-23.8Z" transform="translate(0 0)" fill="#e54344"/><path d="M135.9,139.2v11.7H115.1c0-1.7-.1-3.7-.1-5.6s0-3.9,0-6.1Z" transform="translate(0 0)" fill="#00638d"/><path d="M87.8,85.9H67.2V74H87.8Z" transform="translate(0 0)" fill="#00638d"/><path d="M185.1,69.8V58.2h20.8c0,1.7.1,3.7.1,5.6s0,3.9,0,6.1Z" transform="translate(0 0)" fill="#00638d"/><rect x="6.2" y="5.7" width="237.8" height="40.2" fill="#fefefe"/><rect x="17" y="306.2" width="103.9" height="3.67" fill="#fefefe"/><rect x="17" y="314.2" width="103.9" height="3.67" fill="#fefefe"/><rect x="129" y="306.2" width="103.9" height="3.67" fill="#fefefe"/><rect x="129" y="314.2" width="103.9" height="3.67" fill="#fefefe"/><rect x="17" y="321.7" width="103.9" height="3.67" fill="#fefefe"/><rect x="17" y="329.7" width="103.9" height="3.67" fill="#fefefe"/><rect x="129" y="321.7" width="103.9" height="3.67" fill="#fefefe"/><rect x="129" y="329.7" width="103.9" height="3.67" fill="#fefefe"/><rect x="17" y="337.6" width="103.9" height="3.67" fill="#fefefe"/><rect x="17" y="345.6" width="103.9" height="3.67" fill="#fefefe"/><rect x="129" y="337.6" width="103.9" height="3.67" fill="#fefefe"/><rect x="129" y="345.6" width="103.9" height="3.67" fill="#fefefe"/><rect x="17" y="353.1" width="103.9" height="3.67" fill="#fefefe"/><rect x="17" y="361.1" width="103.9" height="3.67" fill="#fefefe"/><rect x="129" y="353.1" width="103.9" height="3.67" fill="#fefefe"/><rect x="129" y="361.1" width="103.9" height="3.67" fill="#fefefe"/><rect x="17" y="369" width="103.9" height="3.67" fill="#fefefe"/><rect x="17" y="377" width="103.9" height="3.67" fill="#fefefe"/><rect x="129" y="369" width="103.9" height="3.67" fill="#fefefe"/><rect x="129" y="377" width="103.9" height="3.67" fill="#fefefe"/><rect x="17" y="385" width="103.9" height="3.67" fill="#fefefe"/><rect x="129" y="385" width="103.9" height="3.67" fill="#fefefe"/></svg>