<svg xmlns="http://www.w3.org/2000/svg" viewBox="0 0 1364.99 201.64"><rect x="46.8" y="70.01" width="50" height="140.75" transform="translate(-84.17 117.21) rotate(-54.46)" fill="#344f91"/><rect x="65.94" y="83.87" width="211.36" height="50" transform="translate(-26.72 153.24) rotate(-45)" fill="#344f92"/><polygon points="280.49 0 209.22 9.75 270.74 71.26 280.49 0" fill="#344f92"/><path d="M325.52,146.19V58.84h55.06V75.45H345.22V95.68h30.27v16.61H345.22v33.9Z" fill="#344f92"/><path d="M403.89,70a11.78,11.78,0,0,1-8.17-2.88,9.54,9.54,0,0,1-3.21-7.44,9.35,9.35,0,0,1,3.21-7.37,13.38,13.38,0,0,1,16.41,0,9.43,9.43,0,0,1,3.15,7.37,9.62,9.62,0,0,1-3.15,7.44A11.72,11.72,0,0,1,403.89,70Zm-9.78,76.23V79.74h19.7v66.45Z" fill="#344f92"/><path d="M431.09,146.19V79.74h16.07l1.34,11.65H449a25.74,25.74,0,0,1,8.71-10,18.93,18.93,0,0,1,10.18-3.21,26.6,26.6,0,0,1,4.62.33,14.16,14.16,0,0,1,3.28,1l-3.21,17a33.86,33.86,0,0,0-3.48-.8,23.09,23.09,0,0,0-3.76-.27,14.31,14.31,0,0,0-7.83,2.68q-4.1,2.68-6.77,9.51v38.59Z" fill="#344f92"/><path d="M502.9,147.79a38.93,38.93,0,0,1-13.47-2.54,41.51,41.51,0,0,1-12-6.7l8.84-12.33a39.83,39.83,0,0,0,8.71,5.23,21.66,21.66,0,0,0,8.44,1.74q4.43,0,6.43-1.47a4.87,4.87,0,0,0,2-4.16,4.21,4.21,0,0,0-1.14-2.88,11.62,11.62,0,0,0-3.08-2.34,30.87,30.87,0,0,0-4.35-1.94q-2.42-.87-5-2a61.21,61.21,0,0,1-6.16-2.81,26.05,26.05,0,0,1-5.63-4,19.26,19.26,0,0,1-4.15-5.5,15.83,15.83,0,0,1-1.61-7.3,19.74,19.74,0,0,1,1.81-8.44,18,18,0,0,1,5.16-6.56,25.36,25.36,0,0,1,8-4.22,33.2,33.2,0,0,1,10.45-1.54,32.15,32.15,0,0,1,13.39,2.61,53.23,53.23,0,0,1,10.05,5.83l-8.84,11.79a34.53,34.53,0,0,0-7.1-4.15,17.69,17.69,0,0,0-7-1.48q-7.5,0-7.5,5.23a3.83,3.83,0,0,0,1.07,2.74,10.38,10.38,0,0,0,2.88,2.08,38.63,38.63,0,0,0,4.15,1.81l4.89,1.81c2.15.8,4.27,1.72,6.37,2.74A26.33,26.33,0,0,1,524.4,113a17.47,17.47,0,0,1,4.22,5.56,17.69,17.69,0,0,1,1.61,7.84,20.4,20.4,0,0,1-1.75,8.44,18.56,18.56,0,0,1-5.22,6.76,26,26,0,0,1-8.57,4.56A38,38,0,0,1,502.9,147.79Z" fill="#344f92"/><path d="M565.59,147.79a26.48,26.48,0,0,1-10.51-1.87,18.29,18.29,0,0,1-7.1-5.23,21.11,21.11,0,0,1-4-8.1,40.59,40.59,0,0,1-1.28-10.52V95.14h-9.11V80.54l10.19-.8L546,62.05h16.35V79.74h15.94v15.4H562.38V121.8c0,3.75.78,6.46,2.34,8.11a8.18,8.18,0,0,0,6.23,2.48,14.5,14.5,0,0,0,3.29-.4,21.87,21.87,0,0,0,3-.94l3.08,14.33c-1.79.54-3.88,1.07-6.3,1.61A39,39,0,0,1,565.59,147.79Z" fill="#344f92"/><path d="M636.73,146.19V75.45h-24V58.84h67.79V75.45h-24v70.74Z" fill="#344f92"/><path d="M702.38,70a11.77,11.77,0,0,1-8.17-2.88A9.51,9.51,0,0,1,691,59.64a9.32,9.32,0,0,1,3.22-7.37,13.38,13.38,0,0,1,16.41,0,9.46,9.46,0,0,1,3.15,7.37,9.65,9.65,0,0,1-3.15,7.44A11.74,11.74,0,0,1,702.38,70Zm-9.78,76.23V79.74h19.69v66.45Z" fill="#344f92"/><path d="M729.57,146.19V79.74h16.08L747,88.31h.54a52.6,52.6,0,0,1,8.84-7.17,20.32,20.32,0,0,1,11.25-3q7.1,0,11.46,2.88a19.8,19.8,0,0,1,6.9,8.24,57.38,57.38,0,0,1,9.31-7.84,20.27,20.27,0,0,1,11.58-3.28q10.73,0,15.75,7.17t5,19.62v41.27H808V107.47q0-7.23-2-9.92c-1.29-1.78-3.37-2.68-6.23-2.68q-4.95,0-11.38,6.44v44.88h-19.7V107.47q0-7.23-1.94-9.92c-1.3-1.78-3.37-2.68-6.23-2.68-3.39,0-7.15,2.15-11.25,6.44v44.88Z" fill="#344f92"/><path d="M874.13,147.79a37.07,37.07,0,0,1-13.27-2.34,30.44,30.44,0,0,1-10.71-6.83A31.22,31.22,0,0,1,843,127.7,40,40,0,0,1,840.5,113a37.78,37.78,0,0,1,2.68-14.54,34.47,34.47,0,0,1,7-11,30.62,30.62,0,0,1,10-6.9,29.27,29.27,0,0,1,11.66-2.41,29.61,29.61,0,0,1,12.39,2.41,24.48,24.48,0,0,1,8.84,6.7,28.54,28.54,0,0,1,5.3,10.11A44.13,44.13,0,0,1,900.12,110a45.63,45.63,0,0,1-.27,5.09,36.38,36.38,0,0,1-.54,3.62H859.52c.89,4.82,2.88,8.38,6,10.65a18.54,18.54,0,0,0,11.33,3.42,27.4,27.4,0,0,0,14.33-4.42l6.57,11.92a43.76,43.76,0,0,1-11.33,5.49A39.75,39.75,0,0,1,874.13,147.79Zm-14.74-42.06h24a15.05,15.05,0,0,0-2.55-9.11q-2.54-3.5-8.57-3.49A12.21,12.21,0,0,0,864,96.21Q860.46,99.3,859.39,105.73Z" fill="#344f92"/><path d="M1006.49,170.57a43.49,43.49,0,0,1-12.86-1.81,41.22,41.22,0,0,1-10.66-5,38.38,38.38,0,0,1-8.37-7.5,40.87,40.87,0,0,1-5.89-9.44,37.26,37.26,0,0,1-12.66-5.16,34.77,34.77,0,0,1-9.71-9.45,44.05,44.05,0,0,1-6.17-13.33A61.55,61.55,0,0,1,938,102.11,58.56,58.56,0,0,1,940.91,83,39.59,39.59,0,0,1,949,69a34.93,34.93,0,0,1,12.53-8.71,44.8,44.8,0,0,1,32.29,0A34.46,34.46,0,0,1,1006.35,69a40.09,40.09,0,0,1,8.11,14.13,58.13,58.13,0,0,1,2.88,19q0,17.69-7.5,29.07a35.17,35.17,0,0,1-20.23,15,16.69,16.69,0,0,0,8.3,6.63,31,31,0,0,0,10.86,1.94,32.94,32.94,0,0,0,5.29-.4,25.63,25.63,0,0,0,4.35-1.07l3.49,14.33a28.28,28.28,0,0,1-6.37,2.08A42.27,42.27,0,0,1,1006.49,170.57Zm-28.81-38.85q9,0,14.2-7.77t5.23-21.84q0-13.12-5.23-20.5a17.36,17.36,0,0,0-28.4,0q-5.22,7.36-5.22,20.5,0,14.07,5.22,21.84T977.68,131.72Z" fill="#344f92"/><path d="M1052.17,147.79q-10.85,0-15.74-7.1T1031.54,121V79.74h19.69v38.71c0,4.83.67,8.13,2,9.92s3.44,2.68,6.3,2.68a10.92,10.92,0,0,0,6.3-1.74,25.42,25.42,0,0,0,5.49-5.63V79.74H1091v66.45H1075l-1.48-9.25h-.4a35.9,35.9,0,0,1-9.18,8A22.68,22.68,0,0,1,1052.17,147.79Z" fill="#344f92"/><path d="M1125.05,147.79a21.12,21.12,0,0,1-8.24-1.54,17.55,17.55,0,0,1-6.23-4.28,19.86,19.86,0,0,1-3.95-6.37,21.55,21.55,0,0,1-1.41-7.9,18.61,18.61,0,0,1,8.85-16.35q8.84-5.89,28.53-7.9a11.21,11.21,0,0,0-2.61-7q-2.35-2.62-7.84-2.62a23.81,23.81,0,0,0-8.51,1.61,62.59,62.59,0,0,0-9,4.42l-7.1-13a69.84,69.84,0,0,1,13.46-6.3,45.69,45.69,0,0,1,14.94-2.41q12.87,0,19.63,7.3t6.76,22.71v38.05h-16.07l-1.34-6.84h-.54a42.25,42.25,0,0,1-9,6.1A22.81,22.81,0,0,1,1125.05,147.79Zm6.7-15.27a10.87,10.87,0,0,0,5.76-1.47,28,28,0,0,0,5.09-4.16V115.24q-10.45,1.47-14.47,4.29t-4,6.69a5.52,5.52,0,0,0,2.08,4.76A9.1,9.1,0,0,0,1131.75,132.52Z" fill="#344f92"/><path d="M1197,147.79a20.42,20.42,0,0,1-8.57-1.6,13.84,13.84,0,0,1-5.56-4.49,18.85,18.85,0,0,1-3-7,40.81,40.81,0,0,1-.94-9.18V52.27h19.69v74.09q0,3.08,1.14,4.29a3.27,3.27,0,0,0,2.34,1.2h1.14a4.36,4.36,0,0,0,1.28-.27l2.41,14.61a21.32,21.32,0,0,1-4.09,1.13A31.11,31.11,0,0,1,1197,147.79Z" fill="#344f92"/><path d="M1227,70a11.78,11.78,0,0,1-8.17-2.88,9.54,9.54,0,0,1-3.22-7.44,9.36,9.36,0,0,1,3.22-7.37,13.38,13.38,0,0,1,16.41,0,9.43,9.43,0,0,1,3.15,7.37,9.62,9.62,0,0,1-3.15,7.44A11.74,11.74,0,0,1,1227,70Zm-9.78,76.23V79.74h19.69v66.45Z" fill="#344f92"/><path d="M1279.79,147.79a26.53,26.53,0,0,1-10.52-1.87,18.29,18.29,0,0,1-7.1-5.23,21.26,21.26,0,0,1-4-8.1,40.59,40.59,0,0,1-1.28-10.52V95.14h-9.11V80.54l10.19-.8,2.27-17.69h16.35V79.74h15.94v15.4h-15.94V121.8c0,3.75.78,6.46,2.34,8.11a8.18,8.18,0,0,0,6.23,2.48,14.5,14.5,0,0,0,3.29-.4,21.87,21.87,0,0,0,3-.94l3.08,14.33c-1.79.54-3.88,1.07-6.3,1.61A38.93,38.93,0,0,1,1279.79,147.79Z" fill="#344f92"/><path d="M1312.87,172.18a34.89,34.89,0,0,1-5.22-.34,25.89,25.89,0,0,1-4.15-1l3.48-15c.62.18,1.34.36,2.14.54a10.54,10.54,0,0,0,2.28.27q4.95,0,7.64-2.42a14.79,14.79,0,0,0,4-6.29l.93-3.49-25.59-64.7h19.83l9.52,28.53q1.47,4.56,2.67,9.25t2.55,9.64h.54q1.07-4.68,2.21-9.44c.75-3.17,1.54-6.32,2.34-9.45l8-28.53H1365l-23,67.12a90.67,90.67,0,0,1-5,11,30.68,30.68,0,0,1-6,7.9,23.05,23.05,0,0,1-7.77,4.76A29.61,29.61,0,0,1,1312.87,172.18Z" fill="#344f92"/></svg>