<svg xmlns="http://www.w3.org/2000/svg" viewBox="0 0 216 400"><title>chicagofood</title><rect width="216" height="400" rx="27" ry="27"/><circle cx="108" cy="377.9" r="16.6" fill="#fff" opacity="0.1"/><rect x="12" y="44" width="192" height="312" fill="#e20048"/><path d="M163,223.6c1.6,6-1.1,12.9-6.2,14.9a132.3,132.3,0,0,1-97.1,1.1c-5.1-1.9-8.1-8.7-6.6-14.8h0c1.5-6,6.3-9.2,10.9-7.5a119.8,119.8,0,0,0,87.9-1c4.5-1.8,9.5,1.3,11.1,7.3Z" fill="#fff"/><path d="M55.2,200.8c2.2,1,1.9,2.9,1.8,4.2s2.7,1.5,3.5,1.2,5-2,7.2-1.5,2.6,2,3.3,3.6,1.4,3,4.4,1.1,4.4-2.4,6.7-2.1,3.1,1.9,4.4,3.3,4,1.1,4.7.6,3.9-2.8,6.2-2.7,3.7,1.5,5.2,3,3.4,1.8,5.5,0,3.3-2.9,5.6-3,4.5,1.3,6.3,2.6,3.8,1.4,5.5-.6,2.6-3.1,4.7-3.3,4.7.9,6.8,2,4.1.8,5.3-1.1,1.8-3.1,3.7-3.5,5,.6,7.4,1.5,4.5,1.2,4.3-1.3a3.5,3.5,0,0,1,2.4-4h1.1c-2.3-3.6-6.1-5.2-9.6-3.8a119.8,119.8,0,0,1-87.9,1c-3.2-1.2-6.6,0-8.8,3Z" fill="#fff"/><path d="M180.5,207.7a11.9,11.9,0,0,0-14.6-7c-.8.2-2.5.6-2.2,1.1h-.1c-.9.1-1.1,2.6-1.1,2.6a4.5,4.5,0,0,0,0,1.1c.1,1.5.1,3.9-3.6,4.9-1.9.5-4.2-.4-6.4-1.3s-4.6-1.4-5.8.8-2.1,3.8-4.6,4.2-4.6-.8-6.8-2-4.2-1.4-5.8.6-2.9,3.6-5.5,3.8-4.5-1.2-6.5-2.6-3.7-1.8-5.9.1-3.7,3.3-6.3,3.3-4.3-1.8-5.9-3.3-2.4-2.2-5.2-.1-4,2.9-6.3,2.7-3.9-2.2-5.1-3.8-1.6-2.2-5.1-.5-4.4,2.5-6.6,2.1-3.4-2.5-4.2-4.3-1.7-2.4-5.1-.8-4.5,1.8-6.3,1.3c-3.6-1.2-3.2-3.6-2.9-5.1a3,3,0,0,0-.2-1.9c.1-.3-1.2-.8-1.1-1l-1.3-.5a11.9,11.9,0,0,0-14.4,7.3c-2,5.8,1.8,12.4,8.6,14.2l6,1.5c.1-.5.2-1,.3-1.4,1.5-6,6-10.1,11.1-10.1a9.9,9.9,0,0,1,3.5.6c13.6,5.1,28,9.1,42.1,9.1h0c15,0,29.4-4.3,43.8-10.1a9.9,9.9,0,0,1,3.7-.7c5.1,0,9.6,4,11.1,9.9q.2.7.3,1.5l6.2-1.8C179,220.1,182.6,213.4,180.5,207.7Z" fill="#fff"/><path d="M92.6,171a16.6,16.6,0,0,0,.8-11.7c-.8-3.2-4.4-5.6-7.6-4a1.4,1.4,0,0,0-.4.8c.4,3.2,2,6,1.2,9.3s-4,6.8-5.2,10.9a14.5,14.5,0,0,0,.8,10.9c1.1,1.8,2.3,3.4,6.2,3.4a1.8,1.8,0,0,0,1.8-1.8c0-.3-3-7.1-1.1-10.9S91.8,173.4,92.6,171Z" fill="#fff"/><path d="M133.9,171a16.6,16.6,0,0,0,.8-11.7c-.8-3.2-4.4-5.6-7.6-4a1.4,1.4,0,0,0-.4.8c.4,3.2,2,6,1.2,9.3s-4,6.8-5.2,10.9a14.5,14.5,0,0,0,.8,10.9c1.1,1.8,2.3,3.4,6.2,3.4a1.8,1.8,0,0,0,1.8-1.8c0-.3-3-7.1-1.1-10.9S133.1,173.4,133.9,171Z" fill="#fff"/><path d="M115.2,168.6c.8-2.4.4-4.8.4-7.2a17.3,17.3,0,0,0-.8-4.4l-.2-.5-.2-.5-.5-.9a8.4,8.4,0,0,0-1.4-1.6,8.8,8.8,0,0,0-1.7-1.2,4.5,4.5,0,0,0-1.9-.6l-1.6.2a3.3,3.3,0,0,0-1.5.6l-.3.3a.8.8,0,0,0,0,.8v.5l.2.6.3,1.3.7,2.6c.2.8.4,1.7.6,2.6a9.5,9.5,0,0,1,.1,2.6,11.1,11.1,0,0,1-.7,2.6v.3c-2,4.4-4.8,8.1-6,12.9s-1.2,10.5,2,14.5c1.6,1.6,4.4,3.2,6.8,1.6.4-.4.8-.8.8-1.2a3.6,3.6,0,0,0-.4-2,15.7,15.7,0,0,1-.8-11.3C111.2,176.6,114,173,115.2,168.6Z" fill="#fff"/></svg>