<svg xmlns="http://www.w3.org/2000/svg" viewBox="0 0 400 200.5"><title>civilian</title><rect y="0.5" width="400" height="200" fill="#1ca8b6"/><rect x="200" y="0.5" width="200" height="200" fill="#f04a3e"/><rect y="198.8" width="400" height="1.75" fill="#ce2030"/><path d="M132.5,174.8c-3.1,4.9-6.1,9.8-12.8,14.4a41.3,41.3,0,0,1-23.8,7.5c-22.6,0-40.7-16.3-40.7-45,0-25.2,17.1-45,41.1-45a39.2,39.2,0,0,1,24.8,8.5c5.9,4.7,8.7,9.4,11,13.6l-16.9,8.5a21.2,21.2,0,0,0-6.3-8.8,17.8,17.8,0,0,0-11.6-4.1c-13.8,0-20.8,12.8-20.8,26.9,0,18.7,9.4,27.9,20.8,27.9s15.5-7.7,18.5-12.6ZM207,134.9V109.2h-2.6l-17.3,60.4-17.7-60.4H146.8l29.1,84.9h21.8l20.5-59.2Z" transform="translate(0 0.5)" fill="#fff"/><path d="M197.5,109.2h21.2v67.1H252v17.9H197.5Zm76.1,0h20.8L313,140.4c6.7,12,8.8,15.7,12.8,23.2l-1.2-54.5h20.3v84.9H324l-15.9-26.7c-7.7-12.6-9-15.3-14.9-26.5l.6,53.5H273.4V109.2Z" transform="translate(0 0.5)" fill="#010101"/><rect width="400" height="35.78" fill="#fff"/><rect x="194.9" y="13.5" width="40.1" height="8" fill="#f04a3e"/><rect x="240" y="13.5" width="40.1" height="8" fill="#1ca8b6"/><rect x="284.9" y="13.5" width="40.1" height="8" fill="#ce2031"/><rect x="330" y="13.5" width="40.1" height="8" fill="#44b978"/><rect x="30" y="11.5" width="99.9" height="12"/></svg>