<svg xmlns="http://www.w3.org/2000/svg" viewBox="0 0 400 400"><title>generalist_screen</title><rect width="400" height="400" fill="#fff"/><rect width="400" height="82" fill="#333"/><rect x="143.3" y="64" width="113.5" height="9.5" fill="#fff"/><path d="M79.6,31.9H94.4v1.2a25.6,25.6,0,0,1-.9,7.1,15.5,15.5,0,0,1-3.1,5.4,16.1,16.1,0,0,1-12.7,5.6,17.4,17.4,0,0,1-12.9-5.4,17.8,17.8,0,0,1-5.4-13.1,17.8,17.8,0,0,1,5.5-13.2,17.8,17.8,0,0,1,13.3-5.5A18.7,18.7,0,0,1,86,15.8a22.3,22.3,0,0,1,6.9,5.5L88.9,25c-3-3.9-6.5-5.9-10.8-5.9a12.9,12.9,0,0,0-9.5,3.9,13.1,13.1,0,0,0-3.8,9.6,13.4,13.4,0,0,0,13,13.4A11,11,0,0,0,85,43.4a9.6,9.6,0,0,0,3.6-6.5H79.6ZM121,19.8H106.6v8.6h13.9v5.1H106.6v12H121v5.1H101.2V14.7H121Zm7.1,30.8V12.3l26.2,27.4V14.7h5.4V52.8L133.5,25.5V50.6ZM188,19.8H173.6v8.6h13.9v5.1H173.6v12H188v5.1H168.2V14.7H188Zm19.2,15.5,11.1,15.3h-6.6L201.5,35.9h-1V50.6h-5.4V14.7h6.3c4.8,0,8.2.9,10.2,2.6a9.9,9.9,0,0,1,3.5,7.9,10.3,10.3,0,0,1-2.2,6.5,9.4,9.4,0,0,1-5.7,3.6Zm-6.7-4.1h1.7c5.2,0,7.7-2,7.7-5.9s-2.5-5.5-7.5-5.5h-1.9V31.3Zm44.3,10.6H229.5l-4,8.7h-5.8l17.6-38.1,17.2,38.1h-5.9Zm-2.2-5.1-5.4-12.2-5.5,12.2Zm21.7-22.1V45.5H275v5.1H259V14.7Zm21.1,0V50.6h-5.4V14.7Zm28.9,5.4-4.4,2.6a6.4,6.4,0,0,0-2.4-2.8,5.2,5.2,0,0,0-3-.7,5.5,5.5,0,0,0-3.8,1.3,4,4,0,0,0-1.5,3.2c0,1.7,1.3,3.2,3.9,4.2l3.6,1.5a16.2,16.2,0,0,1,6.4,4.3,9.4,9.4,0,0,1,2,6.2,11.1,11.1,0,0,1-3.3,8.2,11.3,11.3,0,0,1-8.3,3.2,11.1,11.1,0,0,1-7.7-2.8,13,13,0,0,1-3.8-7.8l5.5-1.2c.3,2.1.7,3.6,1.3,4.4a6.2,6.2,0,0,0,9.1.6,6.6,6.6,0,0,0,1.4-6.2,4.8,4.8,0,0,0-.9-1.6,8.5,8.5,0,0,0-1.6-1.4,15.1,15.1,0,0,0-2.3-1.2l-3.4-1.5q-7.3-3.1-7.3-9.1a8.6,8.6,0,0,1,3.1-6.7,11,11,0,0,1,7.7-2.7c4,.1,7.3,2,9.6,6.1Zm18-.3V50.6H327V19.8h-8.3V14.7h21.9v5.1Z" fill="none" stroke="#fff" stroke-miterlimit="10" stroke-width="2"/><rect x="59.3" y="94" width="281.3" height="6" fill="#e8e8e8"/><rect x="59.3" y="105.5" width="281.3" height="6" fill="#e8e8e8"/><rect x="59.3" y="117" width="281.3" height="6" fill="#e8e8e8"/><rect x="59.3" y="182" width="281.3" height="6" fill="#e8e8e8"/><rect x="59.3" y="193.5" width="281.3" height="6" fill="#e8e8e8"/><rect x="59.3" y="205" width="99.7" height="6" fill="#e8e8e8"/><rect x="79.3" y="222" width="243.7" height="6" fill="#e8e8e8"/><rect x="79.3" y="233.5" width="243.7" height="6" fill="#e8e8e8"/><rect x="79.3" y="245" width="243.7" height="6" fill="#e8e8e8"/><rect x="79.3" y="256.5" width="243.7" height="6" fill="#e8e8e8"/><rect x="79.3" y="268" width="124.7" height="6" fill="#e8e8e8"/><rect x="59.3" y="320.8" width="281.3" height="6" fill="#e8e8e8"/><rect x="59.3" y="332.3" width="99.7" height="6" fill="#e8e8e8"/><rect x="59.3" y="137.4" width="281.3" height="1.75" fill="#606060"/><rect x="59.3" y="172.3" width="149.5" height="4.75" fill="#606060"/><rect x="59.3" y="311.6" width="218.9" height="4.75" fill="#606060"/><rect x="59.3" y="385" width="199.4" height="4.75" fill="#606060"/><rect x="59.3" y="155" width="137.2" height="11" fill="#d53a38"/><rect x="59.3" y="294.5" width="118.2" height="11" fill="#d53a38"/><rect x="59.3" y="352.3" width="281.3" height="11" fill="#d53a38"/><rect x="59.3" y="368.6" width="74.8" height="11" fill="#d53a38"/></svg>