<?xml version="1.0" encoding="utf-8"?>
<!-- Generator: Adobe Illustrator 22.0.0, SVG Export Plug-In . SVG Version: 6.00 Build 0)  -->
<svg version="1.1" id="Layer_1" xmlns="http://www.w3.org/2000/svg" xmlns:xlink="http://www.w3.org/1999/xlink" x="0px" y="0px"
	 viewBox="0 0 400 373" style="enable-background:new 0 0 400 373;" xml:space="preserve">
<style type="text/css">
	.st0{fill:#FFFFFF;}
	.st1{fill:#333333;}
	.st2{fill:#E8E8E8;}
	.st3{fill:#606060;}
	.st4{fill:#D53A38;}
</style>
<title>generalist_screen</title>
<rect class="st0" width="400" height="373"/>
<rect class="st1" width="400" height="55"/>
<rect x="59.3" y="67" class="st2" width="281.3" height="6"/>
<rect x="59.3" y="78.5" class="st2" width="281.3" height="6"/>
<rect x="59.3" y="90" class="st2" width="281.3" height="6"/>
<rect x="59.3" y="155" class="st2" width="281.3" height="6"/>
<rect x="59.3" y="166.5" class="st2" width="281.3" height="6"/>
<rect x="59.3" y="178" class="st2" width="99.7" height="6"/>
<rect x="79.3" y="195" class="st2" width="243.7" height="6"/>
<rect x="79.3" y="206.5" class="st2" width="243.7" height="6"/>
<rect x="79.3" y="218" class="st2" width="243.7" height="6"/>
<rect x="79.3" y="229.5" class="st2" width="243.7" height="6"/>
<rect x="79.3" y="241" class="st2" width="124.7" height="6"/>
<rect x="59.3" y="293.8" class="st2" width="281.3" height="6"/>
<rect x="59.3" y="305.3" class="st2" width="99.7" height="6"/>
<rect x="59.3" y="110.4" class="st3" width="281.3" height="1.8"/>
<rect x="59.3" y="145.3" class="st3" width="149.5" height="4.8"/>
<rect x="59.3" y="284.6" class="st3" width="218.9" height="4.8"/>
<rect x="59.3" y="358" class="st3" width="199.4" height="4.8"/>
<rect x="59.3" y="128" class="st4" width="137.2" height="11"/>
<rect x="59.3" y="267.5" class="st4" width="118.2" height="11"/>
<rect x="59.3" y="325.3" class="st4" width="281.3" height="11"/>
<rect x="59.3" y="341.6" class="st4" width="74.8" height="11"/>
</svg>
