<?xml version="1.0" encoding="UTF-8"?><svg id="a" xmlns="http://www.w3.org/2000/svg" viewBox="0 0 612 63.06"><polygon points="0 55.96 13.63 55.96 13.63 36.76 31.81 36.76 31.81 46.36 41.91 46.36 41.91 25.65 63.12 25.65 63.12 55.96 80.29 55.96 80.29 40.8 85.43 40.8 85.43 49.69 95.41 49.69 95.41 18.64 147.17 18.64 147.17 44.61 153.01 44.61 153.01 51.58 166.37 51.58 166.37 55.96 191.41 55.96 191.41 0 200.63 0 200.63 55.96 205.9 55.96 205.9 34.45 221.52 34.45 221.52 55.96 240.16 55.96 240.16 45.74 272.91 45.74 272.91 55.96 289.67 55.96 289.67 32.94 308.68 32.94 308.68 55.96 612 55.96 612 63.06 0 63.06 0 55.96" fill="#fff"/></svg>