<svg xmlns="http://www.w3.org/2000/svg" viewBox="0 0 512 314.22"><path d="M344.38 44.88C254.76-42.87 102.37 4.89 79.82 128.81c-31.84 4.6-59.13 25.44-72.01 55.08-.02.03-.04.07-.05.1-26.69 61.6 18.78 130.23 85.51 130.23h282.27c75.24 0 136.46-61.21 136.46-136.46 0-87.41-81.69-152.97-167.62-132.88Zm31.16 237.35H93.27c-69.24 0-84.53-98.26-18.71-119.46 14.75-4.65 43.01-7.34 74.38 21.9 6.46 6.02 16.58 5.66 22.61-.8 6.02-6.46 5.67-16.58-.8-22.61-17.93-16.71-38.07-27.33-58.48-31.45C134.3 30.73 259.64-2.04 327.52 73.5a15.987 15.987 0 0 0 16.69 4.57C411.48 56.96 480 107.45 480 177.76c.01 57.61-46.86 104.47-104.46 104.47ZM480 177.76c.01 57.61-46.86 104.47-104.46 104.47H93.27c-69.24 0-84.53-98.26-18.71-119.46 14.75-4.65 43.01-7.34 74.38 21.9 6.46 6.02 16.58 5.66 22.61-.8 6.02-6.46 5.67-16.58-.8-22.61-17.93-16.71-38.07-27.33-58.48-31.45C134.3 30.73 259.64-2.04 327.52 73.5a15.987 15.987 0 0 0 16.69 4.57C411.48 56.96 480 107.45 480 177.76Z"/></svg>
