<svg version="1.2" baseProfile="tiny" xmlns="http://www.w3.org/2000/svg" width="194.6" height="124.4" viewBox="0 0 194.6 124.4"><g stroke="#333" stroke-width="4" stroke-miterlimit="5" fill="none"><path d="M48.6 14.6l-9.2 5.5c-1.7-3-3.4-4.9-4.9-5.9-1.6-1-3.7-1.6-6.3-1.6-3.2 0-5.8.9-7.9 2.7-2.1 1.8-3.1 4-3.1 6.6 0 3.7 2.7 6.6 8.2 8.9l7.5 3.1c6.1 2.5 10.6 5.5 13.4 9.1 2.8 3.6 4.2 7.9 4.2 13.1 0 6.9-2.3 12.7-6.9 17.2-4.7 4.6-10.4 6.8-17.3 6.8-6.5 0-11.9-1.9-16.2-5.8-4.2-3.8-6.8-9.3-7.8-16.3l11.5-2.5c.5 4.4 1.4 7.5 2.7 9.2 2.3 3.3 5.8 4.9 10.3 4.9 3.5 0 6.5-1.2 8.8-3.6 2.3-2.4 3.5-5.4 3.5-9 0-1.5-.2-2.8-.6-4-.4-1.2-1-2.3-1.9-3.4-.9-1-2-2-3.3-2.9-1.4-.9-3-1.7-4.9-2.6l-7.3-3c-10.3-4.4-15.5-10.8-15.5-19.1 0-5.7 2.2-10.4 6.5-14.2 4.3-3.9 9.7-5.8 16.2-5.8 8.7 0 15.5 4.2 20.3 12.6zM64.3 78.9v-75.4h15.8c7.6 0 13.6.7 18 2.2 4.7 1.5 9 4 12.8 7.5 7.8 7.1 11.7 16.4 11.7 28 0 11.6-4.1 21-12.2 28.1-4.1 3.6-8.3 6.1-12.8 7.5-4.2 1.4-10.1 2.1-17.7 2.1h-15.6zm11.4-10.7h5.1c5.1 0 9.4-.5 12.7-1.6 3.4-1.1 6.4-2.9 9.2-5.4 5.6-5.1 8.4-11.8 8.4-20 0-8.3-2.8-15-8.3-20.1-5-4.6-12.3-6.9-22-6.9h-5.1v54zM192.6 7.5v13.5c-6.6-5.5-13.4-8.3-20.4-8.3-7.7 0-14.3 2.8-19.6 8.3-5.3 5.5-8 12.3-8 20.3 0 7.9 2.7 14.6 8 20s11.9 8.2 19.6 8.2c4 0 7.4-.7 10.2-2 1.6-.7 3.2-1.5 4.9-2.6 1.7-1.1 3.4-2.4 5.3-4v13.7c-6.5 3.7-13.3 5.5-20.5 5.5-10.8 0-20-3.8-27.6-11.3-7.6-7.6-11.4-16.7-11.4-27.4 0-9.6 3.2-18.2 9.5-25.7 7.9-9.1 18-13.7 30.4-13.7 6.8 0 13.3 1.8 19.6 5.5z"/></g><g fill="#333"><path d="M24.8 95.1v5.4c-2.6-2.2-5.4-3.3-8.2-3.3-3.1 0-5.7 1.1-7.9 3.4-2.1 2.2-3.2 4.9-3.2 8.2 0 3.2 1.1 5.9 3.2 8 2.1 2.2 4.8 3.3 7.9 3.3 1.6 0 3-.3 4.1-.8.6-.3 1.3-.6 2-1.1.7-.4 1.4-1 2.1-1.6v5.5c-2.6 1.5-5.4 2.2-8.2 2.2-4.3 0-8-1.5-11.1-4.5-3-3-4.6-6.7-4.6-11 0-3.9 1.3-7.3 3.8-10.3 3.1-3.7 7.2-5.6 12.2-5.6 2.8 0 5.4.8 7.9 2.2zM36 105.4h13.1v-11.9h4.6v30.3h-4.6v-14.1h-13.1v14.1h-4.6v-30.3h4.6v11.9zM65.5 93.5v30.3h-4.6v-30.3h4.6zM95.1 95.1v5.4c-2.6-2.2-5.4-3.3-8.2-3.3-3.1 0-5.7 1.1-7.9 3.4-2.1 2.2-3.2 4.9-3.2 8.2 0 3.2 1.1 5.9 3.2 8 2.1 2.2 4.8 3.3 7.9 3.3 1.6 0 3-.3 4.1-.8.6-.3 1.3-.6 2-1.1.7-.4 1.4-1 2.1-1.6v5.5c-2.6 1.5-5.4 2.2-8.2 2.2-4.3 0-8-1.5-11.1-4.5-3-3-4.6-6.7-4.6-11 0-3.9 1.3-7.3 3.8-10.3 3.1-3.7 7.2-5.6 12.2-5.6 2.8 0 5.4.8 7.9 2.2zM119.4 116.5h-13l-3.4 7.4h-4.9l15-32.2 14.5 32.2h-5l-3.2-7.4zm-1.8-4.3l-4.5-10.3-4.7 10.3h9.2zM145.6 108h12.5v1c0 2.3-.3 4.3-.8 6-.5 1.6-1.4 3.1-2.6 4.6-2.8 3.2-6.4 4.7-10.7 4.7-4.2 0-7.9-1.5-10.9-4.6-3-3.1-4.5-6.8-4.5-11.1 0-4.4 1.5-8.1 4.6-11.2 3.1-3.1 6.8-4.6 11.2-4.6 2.4 0 4.6.5 6.6 1.4 2 1 3.9 2.5 5.8 4.7l-3.3 3.1c-2.5-3.3-5.5-5-9.1-5-3.2 0-5.9 1.1-8.1 3.3-2.2 2.2-3.3 4.9-3.3 8.2 0 3.4 1.2 6.2 3.6 8.3 2.3 2 4.7 3 7.4 3 2.2 0 4.3-.8 6.1-2.3 1.8-1.5 2.8-3.4 3-5.5h-7.6v-4zM162.3 108.5c0-4.3 1.6-7.9 4.7-11 3.1-3.1 6.9-4.6 11.2-4.6 4.3 0 8 1.5 11.1 4.6 3.1 3.1 4.6 6.8 4.6 11.1 0 4.4-1.6 8-4.7 11.1-3.1 3-6.9 4.6-11.3 4.6-3.9 0-7.4-1.4-10.5-4.1-3.4-2.9-5.1-6.8-5.1-11.7zm4.6.1c0 3.3 1.1 6.1 3.4 8.3 2.2 2.2 4.8 3.2 7.7 3.2 3.2 0 5.9-1.1 8-3.3 2.2-2.2 3.3-4.9 3.3-8.1 0-3.2-1.1-5.9-3.2-8.1-2.1-2.2-4.8-3.3-8-3.3s-5.8 1.1-8 3.3c-2.1 2.1-3.2 4.8-3.2 8z"/></g></svg>