<svg xmlns="http://www.w3.org/2000/svg" version="1.2" baseProfile="tiny" id="Layer_2" x="0" y="0" width="909.9" height="95.1" viewBox="0" xml:space="preserve"><path fill="none" stroke="#FFFFFF" stroke-width="4" stroke-miterlimit="5" d="M48.6 21.3l-9.2 5.5c-1.7-3-3.4-4.9-4.9-5.9 -1.6-1-3.7-1.6-6.3-1.6 -3.2 0-5.8 0.9-7.9 2.7 -2.1 1.8-3.1 4-3.1 6.6 0 3.7 2.7 6.6 8.2 8.9l7.5 3.1c6.1 2.5 10.6 5.5 13.4 9.1 2.8 3.6 4.2 7.9 4.2 13.1 0 6.9-2.3 12.7-6.9 17.2 -4.7 4.6-10.4 6.8-17.3 6.8 -6.5 0-11.9-1.9-16.2-5.8 -4.2-3.9-6.8-9.3-7.9-16.4l11.5-2.5c0.5 4.4 1.4 7.5 2.7 9.2 2.3 3.3 5.8 4.9 10.3 4.9 3.5 0 6.5-1.2 8.8-3.6 2.3-2.4 3.5-5.4 3.5-9 0-1.5-0.2-2.8-0.6-4 -0.4-1.2-1-2.3-1.9-3.4 -0.9-1-2-2-3.3-2.9 -1.4-0.9-3-1.7-4.9-2.6l-7.3-3C10.8 43.4 5.6 37 5.6 28.6c0-5.7 2.2-10.4 6.5-14.2 4.3-3.8 9.7-5.8 16.2-5.8C37 8.6 43.8 12.9 48.6 21.3z"/><path fill="none" stroke="#FFFFFF" stroke-width="4" stroke-miterlimit="5" d="M105.9 20.8H75.7v18.1H105v10.7H75.7v25.2h30.2v10.7H64.3V10.1h41.6V20.8z"/><path fill="none" stroke="#FFFFFF" stroke-width="4" stroke-miterlimit="5" d="M158.5 20.8h-26.3v18.1h25.3v10.7h-25.3v35.9h-11.4V10.1h37.6V20.8z"/><path fill="none" stroke="#FFFFFF" stroke-width="4" stroke-miterlimit="5" d="M213.3 20.8h-30.2v18.1h29.3v10.7h-29.3v25.2h30.2v10.7h-41.6V10.1h41.6V20.8z"/><path fill="none" stroke="#FFFFFF" stroke-width="4" stroke-miterlimit="5" d="M253.8 53.4l23.3 32.1h-13.9l-21.5-30.9h-2.1v30.9h-11.4V10.1h13.3c10 0 17.2 1.9 21.6 5.6 4.9 4.2 7.3 9.7 7.3 16.5 0 5.3-1.5 9.9-4.6 13.8C262.8 49.8 258.8 52.3 253.8 53.4zM239.6 44.7h3.6c10.8 0 16.2-4.1 16.2-12.4 0-7.7-5.2-11.6-15.7-11.6h-4.1V44.7z"/><path fill="none" stroke="#FFFFFF" stroke-width="4" stroke-miterlimit="5" d="M319.3 85.5V10.1h15.8c7.6 0 13.6 0.7 18 2.2 4.7 1.5 9 4 12.8 7.5 7.8 7.1 11.7 16.4 11.7 28 0 11.6-4.1 21-12.2 28.1 -4.1 3.6-8.3 6.1-12.8 7.5 -4.2 1.4-10.1 2.1-17.7 2.1H319.3zM330.7 74.8h5.1c5.1 0 9.4-0.5 12.7-1.6 3.4-1.1 6.4-2.9 9.2-5.4 5.6-5.1 8.4-11.8 8.4-20 0-8.3-2.8-15-8.3-20.1 -5-4.6-12.3-6.9-22-6.9h-5.1V74.8z"/><path fill="none" stroke="#FFFFFF" stroke-width="4" stroke-miterlimit="5" d="M433.5 20.8h-30.2v18.1h29.3v10.7h-29.3v25.2h30.2v10.7h-41.6V10.1h41.6V20.8z"/><path fill="none" stroke="#FFFFFF" stroke-width="4" stroke-miterlimit="5" d="M491.1 21.3l-9.2 5.5c-1.7-3-3.4-4.9-4.9-5.9 -1.6-1-3.7-1.6-6.3-1.6 -3.2 0-5.8 0.9-7.9 2.7 -2.1 1.8-3.1 4-3.1 6.6 0 3.7 2.7 6.6 8.2 8.9l7.5 3.1c6.1 2.5 10.6 5.5 13.4 9.1 2.8 3.6 4.2 7.9 4.2 13.1 0 6.9-2.3 12.7-6.9 17.2 -4.7 4.6-10.4 6.8-17.3 6.8 -6.5 0-11.9-1.9-16.2-5.8 -4.2-3.9-6.8-9.3-7.9-16.4l11.5-2.5c0.5 4.4 1.4 7.5 2.7 9.2 2.3 3.3 5.8 4.9 10.3 4.9 3.5 0 6.5-1.2 8.8-3.6 2.3-2.4 3.5-5.4 3.5-9 0-1.5-0.2-2.8-0.6-4s-1-2.3-1.9-3.4c-0.9-1-2-2-3.3-2.9 -1.4-0.9-3-1.7-4.9-2.6l-7.3-3c-10.3-4.4-15.5-10.7-15.5-19.1 0-5.7 2.2-10.4 6.5-14.2 4.3-3.8 9.7-5.8 16.2-5.8C479.4 8.6 486.2 12.9 491.1 21.3z"/><path fill="none" stroke="#FFFFFF" stroke-width="4" stroke-miterlimit="5" d="M518.1 10.1v75.4h-11.4V10.1H518.1z"/><path fill="none" stroke="#FFFFFF" stroke-width="4" stroke-miterlimit="5" d="M575 46.2h31.2v2.5c0 5.7-0.7 10.7-2 15 -1.3 4-3.5 7.8-6.6 11.3 -7 7.9-15.9 11.8-26.7 11.8 -10.5 0-19.6-3.8-27.1-11.4 -7.5-7.6-11.3-16.8-11.3-27.5 0-10.9 3.8-20.2 11.5-27.8 7.6-7.6 17-11.5 27.9-11.5 5.9 0 11.4 1.2 16.5 3.6 4.9 2.4 9.7 6.3 14.4 11.7l-8.1 7.8c-6.2-8.2-13.7-12.4-22.6-12.4 -8 0-14.7 2.8-20.1 8.3 -5.4 5.4-8.1 12.2-8.1 20.3 0 8.4 3 15.3 9 20.8 5.6 5 11.7 7.6 18.3 7.6 5.6 0 10.6-1.9 15.1-5.6 4.5-3.8 6.9-8.3 7.5-13.6H575V46.2z"/><path fill="none" stroke="#FFFFFF" stroke-width="4" stroke-miterlimit="5" d="M620.5 85.5V5l55 57.5V10.1h11.4v80l-55-57.4v52.8H620.5z"/><path fill="none" stroke="#FFFFFF" stroke-width="4" stroke-miterlimit="5" d="M791.5 14.1v13.5c-6.6-5.5-13.4-8.3-20.4-8.3 -7.7 0-14.3 2.8-19.6 8.3 -5.3 5.5-8 12.3-8 20.3 0 7.9 2.7 14.6 8 20 5.3 5.4 11.9 8.2 19.6 8.2 4 0 7.4-0.7 10.2-2 1.6-0.7 3.2-1.5 4.9-2.6 1.7-1.1 3.4-2.4 5.3-4v13.7c-6.5 3.7-13.3 5.5-20.5 5.5 -10.8 0-20-3.8-27.6-11.3C735.8 68 732 58.9 732 48.2c0-9.6 3.2-18.2 9.5-25.7 7.8-9.2 17.9-13.8 30.3-13.8C778.6 8.6 785.1 10.5 791.5 14.1z"/><path fill="none" stroke="#FFFFFF" stroke-width="4" stroke-miterlimit="5" d="M801.6 47.5c0-10.6 3.9-19.7 11.7-27.3 7.7-7.6 17.1-11.4 27.9-11.4 10.7 0 20 3.8 27.6 11.5 7.7 7.7 11.6 16.9 11.6 27.7 0 10.8-3.9 20-11.6 27.6 -7.8 7.6-17.2 11.4-28.2 11.4 -9.7 0-18.5-3.4-26.2-10.1C805.8 69.3 801.6 59.5 801.6 47.5zM813 47.6c0 8.3 2.8 15.2 8.4 20.5 5.6 5.4 12 8 19.3 8 7.9 0 14.6-2.7 20-8.2 5.4-5.5 8.2-12.3 8.2-20.2 0-8-2.7-14.8-8.1-20.2 -5.3-5.5-11.9-8.2-19.8-8.2 -7.8 0-14.5 2.7-19.9 8.2C815.7 33 813 39.7 813 47.6z"/><path fill="none" stroke="#FFFFFF" stroke-width="4" stroke-miterlimit="5" d="M894.3 80c0-1.8 0.7-3.4 2-4.7 1.3-1.3 2.9-2 4.8-2s3.5 0.7 4.8 2c1.3 1.3 2 2.9 2 4.8 0 1.9-0.7 3.5-2 4.8 -1.3 1.3-2.9 2-4.8 2 -1.9 0-3.5-0.7-4.8-2C894.9 83.6 894.3 82 894.3 80z"/></svg>