<?xml version="1.0" encoding="utf-8"?>
<!-- Generator: Adobe Illustrator 23.0.1, SVG Export Plug-In . SVG Version: 6.00 Build 0)  -->
<svg version="1.1" id="Layer_1" xmlns="http://www.w3.org/2000/svg" xmlns:xlink="http://www.w3.org/1999/xlink" x="0px" y="0px"
	 viewBox="0 0 468.6 69.9" style="enable-background:new 0 0 468.6 69.9;" xml:space="preserve">
<path fill="currentColor" d="M55.1,21.1c-3.7,0-8,0.8-11.7,4.4c-2.3,2.2-4.8,6-4.8,12.2c0,4.9,1.4,9,4.9,12.2c3.1,3,7,4.4,12,4.4
	c10.8,0,14.4-7.4,15.3-9.7l-8-1.3c-1.5,2.5-4,4.1-7.3,4.1c-3.4,0-5.4-1.7-6.3-3c-1-1.4-1.5-3.4-1.5-5.3H71v-0.7
	c0-3.3-0.4-8.2-3.7-12.2C65.1,23.6,61.4,21.1,55.1,21.1z M48,33.6c0.7-4.2,4.1-6.3,7.3-6.3s6.7,2.1,7.4,6.3H48z"/>
<path fill="currentColor" d="M194,10c-5.4-4-11.2-4.7-17.9-4.7l0,0.1h-12.5v48H176c6.7,0,12-0.6,17.6-4.6c6.3-4.5,9.6-11.4,9.6-19.4S199.8,14.4,194,10z
	 M187.5,42.1c-4.1,3.1-9.3,3.2-11.7,3.2h-2.9V13.4h2.9c3.2,0,7.9,0.3,11.8,3.2c3.8,2.9,5.9,7.8,5.9,12.8
	C193.5,34.5,191.3,39.4,187.5,42.1z"/>
<path fill="currentColor" d="M29.2,28.5c-2.4-2.2-6-3.5-9.7-4.8c-3.1-1-4.6-1.6-5.8-2.7c-1.1-1-1.5-2-1.5-3.2c0-2.4,1.6-5.6,6.6-5.6c1.7,0,5,0.4,7.8,4.1
	l4.9-6.4c-4.9-5-10.6-5.6-13.6-5.6c-10.6,0-15.4,7-15.4,14.1c0,4.9,2.2,7.5,3.8,8.9c2.5,2.2,5.5,3.3,8,4.2c2.7,0.9,5.6,1.8,7.4,3.5
	c1.3,1.2,1.9,2.6,1.9,4.3c0,4-3.2,6.6-7.4,6.6c-3.4,0-7.8-1.7-10.1-6.4L0,45.3c2.6,3.7,7.7,9.1,16.6,9.1c9.9,0,16.7-6.4,16.7-15.8
	C33.3,33.7,31.4,30.4,29.2,28.5z"/>
<path fill="currentColor" d="M82,2.6c-3.9,3.2-4.1,8.1-4.1,11v8.6h-3.3v7.5h3.3v23.7h8.8V29.7h8v-7.5h-8.1v-7.4c0-2.6,0.2-4.2,0.9-5.4
	c0.9-1.3,2-1.6,3.2-1.6c1.6,0,2.8,0.4,4,1.3v-8c-1.5-0.7-3.1-1.1-5-1.1C86.5,0,83.9,1,82,2.6z"/>
<path fill="currentColor" d="M113.7,21.1c-3.7,0-8,0.8-11.7,4.4c-2.3,2.2-4.8,6-4.8,12.2c0,4.9,1.4,9,4.9,12.2c3.1,3,7,4.4,12,4.4
	c10.8,0,14.4-7.4,15.3-9.7l-8-1.3c-1.5,2.5-4,4.1-7.3,4.1c-3.4,0-5.4-1.7-6.3-3c-1-1.4-1.5-3.4-1.5-5.3h23.3v-0.7
	c0-3.3-0.4-8.2-3.7-12.2C123.7,23.6,120,21.1,113.7,21.1z M106.6,33.6c0.7-4.2,4.1-6.3,7.3-6.3c3.2,0,6.7,2.1,7.4,6.3H106.6z"/>
<path fill="currentColor" d="M149.1,22.6c-0.7,0.3-2.5,1.6-3.9,4.3v-4.7h-8.8h0v31.1h8.8v-15c0-2.1,0-4.8,1.7-6.9c1.7-2.1,4.1-2.5,5.8-2.5
	c1.8,0,2.9,0.4,4.1,1.2l1.2-8.2c-1-0.3-2.2-0.7-3.7-0.7C152.2,21.2,150.5,21.7,149.1,22.6z"/>
<path fill="currentColor" d="M261.5,33.4l-2.1-0.6c-2.4-0.8-2.8-2-2.8-2.8c0-1.5,1.3-2.5,3.4-2.5c0.9,0,3,0.2,5.1,2.1l4.1-5.2c-3.9-3-7.6-3.3-9.9-3.3
	c-2.5,0-5.7,0.3-8.1,2.2c-1.8,1.6-3.2,4.1-3.2,7.1c0,2.5,1,4.5,2.4,6c1.9,1.9,4.5,2.9,6.7,3.7l2,0.7c1.1,0.5,2.7,1.3,2.7,3.2
	c0,2.2-1.9,3.4-4.3,3.4c-2.6,0-5.2-1.6-6.9-3.6l-4.6,5.3c1.9,2.1,5.6,5.2,12.1,5.2c3.9,0,6.9-1,9.4-3.3c2.6-2.3,3.5-5.1,3.5-7.9
	c0-2-0.7-3.9-1.6-5.2C267.6,35.4,263.9,34.2,261.5,33.4z"/>
<path fill="currentColor" d="M409.7,40.6c-2.8,3.4-6.7,5.3-11.2,5.3c-8.1,0-16.3-5.7-16.3-16.4c0-8.9,6.3-16.8,15.9-16.8c1.7,0,7.2,0.4,11.6,5.4V7.2
	c-4.4-2.4-8.4-3-11.8-3c-6.8,0-12.8,1.8-17.6,6.3c-4.1,3.8-7.7,10.1-7.7,18.8c0,7.1,2.2,13.1,7.7,18.4c4.1,3.8,9.2,6.7,17.6,6.7
	c5.2,0,9-1.3,11.9-2.8h-0.1V40.6z"/>
<path fill="currentColor" d="M353.6,21.2c-5,0-7.9,2.7-9.6,5v-4h-8.8H335v31.1h8.8V37.4c0-1.8,0.1-4,1.4-6c1.3-1.9,3.1-2.7,5.4-2.7
	c0.9,0,2.7,0.2,4.1,1.6c1.6,1.6,1.7,4.4,1.7,6.1v17h8.8V33.8c0-3-0.2-6.1-2.4-8.8C360.4,22,356.3,21.2,353.6,21.2z"/>
<path fill="currentColor" d="M433.4,21.2c-5.9,0-9.9,2-12.6,4.4c-3.1,2.8-5.3,7.1-5.3,12.2c0,5.1,2.2,9.4,5.3,12.2c2.7,2.5,6.7,4.4,12.6,4.4
	c5.9,0,9.9-2,12.6-4.4c3.1-2.8,5.3-7.2,5.3-12.2c0-5.1-2.2-9.4-5.3-12.2C443.4,23.1,439.3,21.2,433.4,21.2z M433.4,46.6
	c-5.1,0-8.8-4-8.8-8.8c0-4.9,3.8-8.9,8.8-8.9c5.1,0,8.8,4,8.8,8.9C442.2,42.6,438.5,46.6,433.4,46.6z"/>
<path fill="currentColor" d="M225.4,21.1c-3.7,0-8,0.8-11.7,4.4c-2.3,2.2-4.8,6-4.8,12.2c0,4.9,1.4,9,4.9,12.2c3.1,3,7,4.4,12,4.4
	c10.8,0,14.4-7.4,15.3-9.7l-8-1.3c-1.5,2.5-4,4.1-7.3,4.1c-3.4,0-5.4-1.7-6.3-3c-1-1.4-1.5-3.4-1.5-5.3h23.3v-0.7
	c0-3.3-0.4-8.2-3.7-12.2C235.4,23.6,231.7,21.1,225.4,21.1z M218.4,33.6c0.7-4.2,4.1-6.3,7.3-6.3s6.7,2.1,7.4,6.3H218.4z"/>
<path fill="currentColor" d="M463,43.1c-3.2,0-5.7,2.4-5.6,5.6c0,3.2,2.4,5.6,5.6,5.6s5.6-2.4,5.6-5.6S466.2,43.1,463,43.1z"/>
<rect fill="currentColor" x="277.2" y="22.2" width="8.8" height="31.2"/>
<circle fill="currentColor" cx="281.6" cy="9" r="5.3"/>
<path fill="currentColor" d="M318,22.2v4c-1.2-1.8-4-5-9.8-5c-4.1,0-8,1.5-10.7,4.2c-3,3-4.8,7.5-4.8,12.4c0,6.1,2.7,10.1,5,12.4c3,2.9,6.6,4.2,10.8,4.2
	c2.4,0,6.6-0.6,9.6-5.2v4.4c0,2.5-0.2,5-2.2,6.9c-1.1,1-2.8,1.9-5.3,1.9c-1.2,0-3.6-0.1-5.3-1.7c-1-0.8-1.8-2.3-2.2-3.7h-9.5
	c0.7,3.5,2.6,7.2,5,9.3c2.1,1.8,5.7,3.6,11.7,3.6c6.4,0,10.1-2.2,12.3-4.4c3.9-3.9,4.3-8.8,4.3-13.6V22.2h-8.8H318z M316.2,44.3
	c-1.5,1.4-3.6,2.2-5.8,2.2c-2.1,0-4.4-0.7-6.3-2.7c-1.3-1.3-2.3-3.4-2.3-6.1c0-3.2,1.4-5.3,2.8-6.6h0c1.1-1,3.1-2.2,5.8-2.3
	c2.4,0,4.4,0.7,6.1,2.5c1.2,1.3,2.5,3.3,2.5,6.3C319,40.1,318,42.6,316.2,44.3z"/>
</svg>
