<svg width="1920" height="1080" viewBox="0 0 1920 1080" fill="none" xmlns="http://www.w3.org/2000/svg">
<rect width="1920" height="1080" fill="white"/>
<rect width="1920" height="1080" fill="#203D58"/>
<rect x="399" y="737" width="105" height="343" fill="#B0B0B0"/>
<rect x="1748" y="690" width="105" height="390" fill="#B0B0B0"/>
<rect x="910" y="991" width="237" height="89" fill="#B0B0B0"/>
<rect y="724" width="191" height="356" fill="#C7C7C7"/>
<rect x="1053" y="724" width="191" height="356" fill="#C7C7C7"/>
<rect x="257" y="614" width="113" height="466" fill="#C7C7C7"/>
<rect x="1547" y="518" width="113" height="562" fill="#C7C7C7"/>
<rect x="789" y="754" width="44" height="326" fill="#C7C7C7"/>
<rect x="866" y="816" width="44" height="264" fill="#C7C7C7"/>
<rect x="1726" y="816" width="44" height="264" fill="#C7C7C7"/>
<rect x="1572" y="396" width="11" height="122" fill="#C7C7C7"/>
<rect x="1624" y="396" width="11" height="122" fill="#C7C7C7"/>
<rect x="943" y="754" width="44" height="326" fill="#C7C7C7"/>
<rect x="436" y="902" width="287" height="178" fill="#C7C7C7"/>
<rect x="1836" y="902" width="84" height="178" fill="#C7C7C7"/>
<rect x="1310" y="902" width="171" height="178" fill="#C7C7C7"/>
<mask id="mask0_2_48" style="mask-type:alpha" maskUnits="userSpaceOnUse" x="0" y="0" width="1920" height="1080">
<rect width="1920" height="1080" fill="white"/>
</mask>
<g mask="url(#mask0_2_48)">
</g>
</svg>
