<svg xmlns="http://www.w3.org/2000/svg" version="1.2" baseProfile="tiny" width="595.4" height="95.1" viewBox="0 0 595.4 95.1"><g stroke="#fff" stroke-width="4" stroke-miterlimit="5" fill="none"><path d="M44.5 46.2h31.2v2.5c0 5.7-.7 10.7-2 15-1.3 4-3.5 7.8-6.6 11.3-7 7.9-15.9 11.8-26.7 11.8-10.5 0-19.6-3.8-27.1-11.4-7.5-7.6-11.3-16.7-11.3-27.4 0-11 3.8-20.3 11.5-27.9 7.6-7.6 17-11.5 27.9-11.5 5.9 0 11.4 1.2 16.5 3.6 4.9 2.4 9.7 6.3 14.4 11.7l-8.1 7.8c-6.2-8.2-13.7-12.4-22.6-12.4-8 0-14.7 2.8-20.1 8.3-5.4 5.4-8.1 12.2-8.1 20.3 0 8.4 3 15.3 9 20.8 5.6 5 11.7 7.6 18.3 7.6 5.6 0 10.6-1.9 15.1-5.6 4.5-3.8 6.9-8.3 7.5-13.6h-18.8v-10.9zM131.6 20.8h-30.2v18.1h29.3v10.7h-29.3v25.2h30.2v10.7h-41.6v-75.4h41.6v10.7zM146.5 85.5v-80.5l55 57.5v-52.4h11.4v80l-55-57.4v52.8h-11.4zM272.6 20.8h-30.2v18.1h29.3v10.7h-29.3v25.2h30.2v10.7h-41.6v-75.4h41.6v10.7zM313 53.4l23.3 32.1h-13.9l-21.5-30.9h-2.1v30.9h-11.4v-75.4h13.3c10 0 17.2 1.9 21.6 5.6 4.9 4.2 7.3 9.7 7.3 16.5 0 5.3-1.5 9.9-4.6 13.8-2.9 3.8-7 6.3-12 7.4zm-14.1-8.7h3.6c10.8 0 16.2-4.1 16.2-12.4 0-7.7-5.2-11.6-15.7-11.6h-4.1v24zM392 67.2h-32.3l-8.4 18.3h-12.3l37.3-80.1 36 80.1h-12.5l-7.8-18.3zm-4.6-10.7l-11.2-25.6-11.7 25.6h22.9zM433.2 10.1v64.7h22.2v10.7h-33.5v-75.4h11.3zM477.5 10.1v75.4h-11.4v-75.4h11.4zM538.2 21.3l-9.2 5.5c-1.7-3-3.4-4.9-4.9-5.9-1.6-1-3.7-1.6-6.3-1.6-3.2 0-5.8.9-7.9 2.7-2.1 1.8-3.1 4-3.1 6.6 0 3.7 2.7 6.6 8.2 8.9l7.5 3.1c6.1 2.5 10.6 5.5 13.4 9.1 2.8 3.6 4.2 7.9 4.2 13.1 0 6.9-2.3 12.7-6.9 17.2-4.7 4.6-10.4 6.8-17.3 6.8-6.5 0-11.9-1.9-16.2-5.8-4.2-3.9-6.8-9.3-7.9-16.4l11.5-2.5c.5 4.4 1.4 7.5 2.7 9.2 2.3 3.3 5.8 4.9 10.3 4.9 3.5 0 6.5-1.2 8.8-3.6 2.3-2.4 3.5-5.4 3.5-9 0-1.5-.2-2.8-.6-4-.4-1.2-1-2.3-1.9-3.4-.9-1-2-2-3.3-2.9-1.4-.9-3-1.7-4.9-2.6l-7.3-3c-10.3-4.4-15.5-10.7-15.5-19.1 0-5.7 2.2-10.4 6.5-14.2 4.3-3.8 9.7-5.8 16.2-5.8 8.8 0 15.5 4.3 20.4 12.7zM576.1 20.8v64.7h-11.4v-64.7h-17.3v-10.7h46v10.7h-17.3z"/></g></svg>